<?xml version="1.0" encoding="UTF-8" standalone="no"?>
<!-- Created with Inkscape (http://www.inkscape.org/) -->

<svg
   width="207.27354mm"
   height="86.178398mm"
   viewBox="0 0 207.27354 86.178399"
   version="1.1"
   id="svg5"
   inkscape:version="1.1.2 (b8e25be833, 2022-02-05)"
   sodipodi:docname="HamsterLogo.svg"
   xmlns:inkscape="http://www.inkscape.org/namespaces/inkscape"
   xmlns:sodipodi="http://sodipodi.sourceforge.net/DTD/sodipodi-0.dtd"
   xmlns="http://www.w3.org/2000/svg"
   xmlns:svg="http://www.w3.org/2000/svg">
  <sodipodi:namedview
     id="namedview7"
     pagecolor="#ffffff"
     bordercolor="#666666"
     borderopacity="1.0"
     inkscape:pageshadow="2"
     inkscape:pageopacity="0.0"
     inkscape:pagecheckerboard="0"
     inkscape:document-units="mm"
     showgrid="false"
     inkscape:zoom="0.5"
     inkscape:cx="76"
     inkscape:cy="350"
     inkscape:window-width="1920"
     inkscape:window-height="1017"
     inkscape:window-x="-8"
     inkscape:window-y="-8"
     inkscape:window-maximized="1"
     inkscape:current-layer="layer1" />
  <defs
     id="defs2">
    <inkscape:path-effect
       effect="bspline"
       id="path-effect1424"
       is_visible="true"
       lpeversion="1"
       weight="33.333333"
       steps="2"
       helper_size="0"
       apply_no_weight="true"
       apply_with_weight="true"
       only_selected="false" />
    <inkscape:path-effect
       effect="bspline"
       id="path-effect1420"
       is_visible="true"
       lpeversion="1"
       weight="33.333333"
       steps="2"
       helper_size="0"
       apply_no_weight="true"
       apply_with_weight="true"
       only_selected="false" />
    <inkscape:path-effect
       effect="bspline"
       id="path-effect1416"
       is_visible="true"
       lpeversion="1"
       weight="33.333333"
       steps="2"
       helper_size="0"
       apply_no_weight="true"
       apply_with_weight="true"
       only_selected="false" />
    <inkscape:path-effect
       effect="bspline"
       id="path-effect1412"
       is_visible="true"
       lpeversion="1"
       weight="33.333333"
       steps="2"
       helper_size="0"
       apply_no_weight="true"
       apply_with_weight="true"
       only_selected="false" />
    <inkscape:path-effect
       effect="bspline"
       id="path-effect1408"
       is_visible="true"
       lpeversion="1"
       weight="33.333333"
       steps="2"
       helper_size="0"
       apply_no_weight="true"
       apply_with_weight="true"
       only_selected="false" />
    <inkscape:path-effect
       effect="bspline"
       id="path-effect1404"
       is_visible="true"
       lpeversion="1"
       weight="33.333333"
       steps="2"
       helper_size="0"
       apply_no_weight="true"
       apply_with_weight="true"
       only_selected="false" />
    <inkscape:path-effect
       effect="bspline"
       id="path-effect1400"
       is_visible="true"
       lpeversion="1"
       weight="33.333333"
       steps="2"
       helper_size="0"
       apply_no_weight="true"
       apply_with_weight="true"
       only_selected="false" />
    <inkscape:path-effect
       effect="bspline"
       id="path-effect1396"
       is_visible="true"
       lpeversion="1"
       weight="33.333333"
       steps="2"
       helper_size="0"
       apply_no_weight="true"
       apply_with_weight="true"
       only_selected="false" />
    <inkscape:path-effect
       effect="bspline"
       id="path-effect1392"
       is_visible="true"
       lpeversion="1"
       weight="33.333333"
       steps="2"
       helper_size="0"
       apply_no_weight="true"
       apply_with_weight="true"
       only_selected="false" />
    <inkscape:path-effect
       effect="bspline"
       id="path-effect1388"
       is_visible="true"
       lpeversion="1"
       weight="33.333333"
       steps="2"
       helper_size="0"
       apply_no_weight="true"
       apply_with_weight="true"
       only_selected="false" />
    <inkscape:path-effect
       effect="bspline"
       id="path-effect1384"
       is_visible="true"
       lpeversion="1"
       weight="33.333333"
       steps="2"
       helper_size="0"
       apply_no_weight="true"
       apply_with_weight="true"
       only_selected="false" />
    <inkscape:path-effect
       effect="bspline"
       id="path-effect1380"
       is_visible="true"
       lpeversion="1"
       weight="33.333333"
       steps="2"
       helper_size="0"
       apply_no_weight="true"
       apply_with_weight="true"
       only_selected="false" />
    <inkscape:path-effect
       effect="bspline"
       id="path-effect1376"
       is_visible="true"
       lpeversion="1"
       weight="33.333333"
       steps="2"
       helper_size="0"
       apply_no_weight="true"
       apply_with_weight="true"
       only_selected="false" />
    <inkscape:path-effect
       effect="bspline"
       id="path-effect1372"
       is_visible="true"
       lpeversion="1"
       weight="33.333333"
       steps="2"
       helper_size="0"
       apply_no_weight="true"
       apply_with_weight="true"
       only_selected="false" />
    <inkscape:path-effect
       effect="bspline"
       id="path-effect1368"
       is_visible="true"
       lpeversion="1"
       weight="33.333333"
       steps="2"
       helper_size="0"
       apply_no_weight="true"
       apply_with_weight="true"
       only_selected="false" />
    <inkscape:path-effect
       effect="bspline"
       id="path-effect1364"
       is_visible="true"
       lpeversion="1"
       weight="33.333333"
       steps="2"
       helper_size="0"
       apply_no_weight="true"
       apply_with_weight="true"
       only_selected="false" />
    <inkscape:path-effect
       effect="bspline"
       id="path-effect1360"
       is_visible="true"
       lpeversion="1"
       weight="33.333333"
       steps="2"
       helper_size="0"
       apply_no_weight="true"
       apply_with_weight="true"
       only_selected="false" />
    <inkscape:path-effect
       effect="bspline"
       id="path-effect1356"
       is_visible="true"
       lpeversion="1"
       weight="33.333333"
       steps="2"
       helper_size="0"
       apply_no_weight="true"
       apply_with_weight="true"
       only_selected="false" />
    <inkscape:path-effect
       effect="bspline"
       id="path-effect1352"
       is_visible="true"
       lpeversion="1"
       weight="33.333333"
       steps="2"
       helper_size="0"
       apply_no_weight="true"
       apply_with_weight="true"
       only_selected="false" />
    <inkscape:path-effect
       effect="bspline"
       id="path-effect1348"
       is_visible="true"
       lpeversion="1"
       weight="33.333333"
       steps="2"
       helper_size="0"
       apply_no_weight="true"
       apply_with_weight="true"
       only_selected="false" />
    <inkscape:path-effect
       effect="bspline"
       id="path-effect1344"
       is_visible="true"
       lpeversion="1"
       weight="33.333333"
       steps="2"
       helper_size="0"
       apply_no_weight="true"
       apply_with_weight="true"
       only_selected="false" />
    <inkscape:path-effect
       effect="bspline"
       id="path-effect1340"
       is_visible="true"
       lpeversion="1"
       weight="33.333333"
       steps="2"
       helper_size="0"
       apply_no_weight="true"
       apply_with_weight="true"
       only_selected="false" />
    <inkscape:path-effect
       effect="bspline"
       id="path-effect1336"
       is_visible="true"
       lpeversion="1"
       weight="33.333333"
       steps="2"
       helper_size="0"
       apply_no_weight="true"
       apply_with_weight="true"
       only_selected="false" />
    <inkscape:path-effect
       effect="bspline"
       id="path-effect1332"
       is_visible="true"
       lpeversion="1"
       weight="33.333333"
       steps="2"
       helper_size="0"
       apply_no_weight="true"
       apply_with_weight="true"
       only_selected="false" />
    <inkscape:path-effect
       effect="bspline"
       id="path-effect1195"
       is_visible="true"
       lpeversion="1"
       weight="33.333333"
       steps="2"
       helper_size="0"
       apply_no_weight="true"
       apply_with_weight="true"
       only_selected="false" />
    <inkscape:path-effect
       effect="bspline"
       id="path-effect1077"
       is_visible="true"
       lpeversion="1"
       weight="33.333333"
       steps="2"
       helper_size="0"
       apply_no_weight="true"
       apply_with_weight="true"
       only_selected="false" />
    <inkscape:path-effect
       effect="bspline"
       id="path-effect1073"
       is_visible="true"
       lpeversion="1"
       weight="33.333333"
       steps="2"
       helper_size="0"
       apply_no_weight="true"
       apply_with_weight="true"
       only_selected="false" />
    <inkscape:path-effect
       effect="bspline"
       id="path-effect1069"
       is_visible="true"
       lpeversion="1"
       weight="33.333333"
       steps="2"
       helper_size="0"
       apply_no_weight="true"
       apply_with_weight="true"
       only_selected="false" />
    <inkscape:path-effect
       effect="bspline"
       id="path-effect1065"
       is_visible="true"
       lpeversion="1"
       weight="33.333333"
       steps="2"
       helper_size="0"
       apply_no_weight="true"
       apply_with_weight="true"
       only_selected="false" />
    <inkscape:path-effect
       effect="bspline"
       id="path-effect1061"
       is_visible="true"
       lpeversion="1"
       weight="33.333333"
       steps="2"
       helper_size="0"
       apply_no_weight="true"
       apply_with_weight="true"
       only_selected="false" />
    <inkscape:path-effect
       effect="bspline"
       id="path-effect943"
       is_visible="true"
       lpeversion="1"
       weight="33.333333"
       steps="2"
       helper_size="0"
       apply_no_weight="true"
       apply_with_weight="true"
       only_selected="false" />
    <inkscape:path-effect
       effect="bspline"
       id="path-effect939"
       is_visible="true"
       lpeversion="1"
       weight="33.333333"
       steps="2"
       helper_size="0"
       apply_no_weight="true"
       apply_with_weight="true"
       only_selected="false" />
    <inkscape:path-effect
       effect="bspline"
       id="path-effect935"
       is_visible="true"
       lpeversion="1"
       weight="33.333333"
       steps="2"
       helper_size="0"
       apply_no_weight="true"
       apply_with_weight="true"
       only_selected="false" />
  </defs>
  <g
     inkscape:label="Warstwa 1"
     inkscape:groupmode="layer"
     id="layer1"
     transform="translate(-1.8505585,-1.0508488)">
    <path
       style="fill:none;stroke:#000000;stroke-width:0.847464px;stroke-linecap:butt;stroke-linejoin:miter;stroke-opacity:1"
       d="M 9.1120887,7.5366507 C 8.0000194,7.9602961 5.7754251,8.8077604 4.4333126,10.556111 c -1.3421124,1.74835 -1.801147,4.396626 -1.8893278,7.539457 -0.088181,3.142831 0.1943014,6.779794 0.1236069,11.070066 -0.070695,4.290273 -0.4944187,9.233722 -0.3707176,13.912572 0.1237012,4.67885 0.7945955,9.092627 2.4723192,11.617021 1.6777237,2.524395 4.3613127,3.159979 6.3381817,2.524339 1.976869,-0.635639 3.248038,-2.542396 3.989621,-5.896687 0.741583,-3.35429 0.953445,-8.156494 1.447752,-11.19354 0.494306,-3.037046 1.271133,-4.308219 2.895833,-5.261819 1.6247,-0.953601 4.096423,-1.589186 5.897507,-1.588821 1.801084,3.65e-4 2.931018,0.635952 3.601439,4.202585 0.670422,3.566634 0.882284,10.063733 1.377053,13.700764 0.49477,3.637031 1.271599,4.413857 2.648608,4.519278 1.377008,0.105421 3.354384,-0.459547 4.625232,-1.871626 1.270847,-1.412079 1.835814,-3.671938 2.047758,-11.687556 C 39.850123,34.126527 39.708881,20.3555 39.28548,12.975536 38.862079,5.5955724 38.155875,4.6068855 36.672883,4.0767492 35.18989,3.5466128 32.930029,3.4759878 31.375857,3.9703876 29.821685,4.4647873 28.974235,5.5240997 28.44459,8.3493778 27.914945,11.174656 27.703083,15.765002 27.13806,18.695506 c -0.565023,2.930504 -1.483092,4.201676 -2.859797,4.907791 -1.376704,0.706114 -3.212837,0.847354 -4.55482,4.12e-4 -1.341983,-0.846942 -2.189429,-2.683078 -2.966435,-5.7199 C 15.980002,14.846987 15.273795,10.609747 14.197056,8.6141369 13.120318,6.6185268 11.67259,6.8656996 10.948374,6.989346 10.224158,7.1129925 10.224158,7.1130053 9.1120887,7.5366507 Z"
       id="path933"
       inkscape:path-effect="#path-effect935"
       inkscape:original-d="M 10.224158,7.1130053 C 8.0004087,7.961318 5.7758142,8.8087818 3.5503708,9.6554 c -0.4582076,2.649228 -0.9172383,5.297505 -1.3771307,7.944984 0.2833389,3.637955 0.5658258,7.274917 0.8474638,10.911109 -0.4228911,4.944492 -0.846615,9.887942 -1.2711973,14.830639 0.6717687,4.414818 1.3426662,8.828594 2.012731,13.241647 2.6845382,0.636439 5.3681218,1.272046 8.0509144,1.906788 1.272072,-1.905987 2.543243,-3.812743 3.813592,-5.720396 0.212712,-4.801543 0.424582,-9.603747 0.6356,-14.406898 0.777702,-1.270374 1.55453,-2.541546 2.330528,-3.813592 2.472665,-0.634767 4.944389,-1.270349 7.415318,-1.906794 1.130825,0.636455 2.260757,1.272046 3.389859,1.906794 0.212713,6.49821 0.424583,12.995309 0.635601,19.491703 0.777702,0.777693 1.554529,1.554521 2.330528,2.330515 1.978305,-0.564147 3.955687,-1.129095 5.932253,-1.69494 0.565835,-2.259088 1.130799,-4.518948 1.694931,-6.779704 C 39.850973,34.126518 39.70972,20.355491 39.567628,6.5833416 38.86224,5.5954575 38.156033,4.6067727 37.448967,3.6172134 35.189863,3.5474838 32.930003,3.4768252 30.669247,3.4053339 29.822612,4.4655293 28.975165,5.5248438 28.126852,6.5833288 27.915837,11.174697 27.703966,15.765043 27.491254,20.354633 c -0.917261,1.272068 -1.835329,2.54324 -2.754262,3.813592 -1.835364,0.142086 -3.671496,0.283339 -5.508523,0.42373 C 18.381835,22.756594 17.534387,20.920459 16.686078,19.083436 15.98069,14.846872 15.274479,10.609633 14.567413,6.3714621 13.120479,6.6194717 11.672754,6.8666613 10.224158,7.1129925 Z" />
    <path
       id="path937"
       style="fill:none;stroke:#000000;stroke-width:0.847464px;stroke-linecap:butt;stroke-linejoin:miter;stroke-opacity:1"
       d="m 58.074474,20.506926 c -0.148588,0.0019 -0.298745,0.0053 -0.448563,0.01159 -2.397208,0.09969 -4.943248,0.749286 -7.415317,1.723065 -2.472067,0.97378 -4.869333,2.272172 -6.067978,2.921441 -1.198653,0.649268 -1.198832,0.648708 -1.398646,0.948431 -0.199804,0.299722 -0.599675,0.899389 -0.574361,1.598929 0.0253,0.699532 0.475869,1.497361 1.175196,1.971348 0.699328,0.473987 1.647911,0.62391 3.270687,0.374078 1.62277,-0.249835 3.919731,-0.898676 5.617762,-1.223196 1.698041,-0.324519 2.79559,-0.32385 3.669591,-0.173799 0.873997,0.150045 1.523294,0.448894 1.822379,0.948432 0.299097,0.499529 0.249963,1.198392 -0.04965,1.847212 -0.29961,0.648819 -0.848313,1.248164 -2.196459,2.121966 -1.348137,0.873812 -3.495699,2.02367 -5.243688,3.297173 -1.747989,1.273504 -3.096969,2.671505 -4.245606,4.119807 -1.148627,1.448292 -2.097838,2.946474 -2.572182,4.320079 -0.474342,1.373604 -0.473352,2.62147 -0.223443,3.845042 0.2499,1.223569 0.748238,2.422106 1.572448,3.520622 0.8242,1.098519 1.973068,2.096941 3.421309,2.770811 1.448231,0.67387 3.195493,1.023085 4.818295,1.022916 1.622802,-1.7e-4 3.122384,-0.349638 4.245605,-1.198364 1.123212,-0.848729 1.871007,-2.195784 2.345425,-3.219375 0.474412,-1.023594 0.674751,-1.723777 0.999739,-2.123629 0.324984,-0.399852 0.773685,-0.499725 0.998092,-0.02498 0.224403,0.474902 0.225108,1.523554 0.475039,2.54736 0.249932,1.023812 0.748651,2.022551 1.847209,2.146806 1.098561,0.124245 2.796746,-0.625258 3.820213,-1.948177 1.023472,-1.322927 1.373594,-3.220384 1.398645,-7.464981 0.02498,-4.244586 -0.275363,-10.835175 -1.099051,-15.204705 -0.823691,-4.369393 -2.17162,-6.516946 -3.969195,-7.815736 -1.685232,-1.217612 -3.7648,-1.688184 -5.993498,-1.660167 z m 2.234527,18.659126 c 0.800879,-0.0038 1.518919,0.24077 1.911763,0.667047 0.44896,0.487182 0.473944,1.210077 -0.200285,2.57053 -0.674226,1.360453 -2.048035,3.358632 -3.308758,4.669329 -1.260714,1.310707 -2.408935,1.93517 -3.532201,2.160044 -1.123272,0.224884 -2.222458,0.04875 -3.03399,-0.288015 -0.811542,-0.336739 -1.336437,-0.83509 -1.574097,-1.559209 -0.237664,-0.724106 -0.187345,-1.672843 0.436968,-2.572183 0.624319,-0.899337 1.822811,-1.748505 2.92144,-2.52253 1.098619,-0.774031 2.098011,-1.47242 3.096881,-2.034245 0.998884,-0.561835 1.998046,-0.987068 2.934678,-1.074231 0.117103,-0.01089 0.23318,-0.01602 0.347598,-0.01666 z" />
    <path
       style="fill:none;stroke:#000000;stroke-width:0.847464px;stroke-linecap:butt;stroke-linejoin:miter;stroke-opacity:1"
       d="m 72.14208,29.059259 c 0.158919,3.725757 0.476717,11.176379 0.635598,15.74916 0.158881,4.572781 0.158881,6.267676 0.441712,7.521285 0.282832,1.25361 0.847804,2.065761 1.589412,2.453663 0.741607,0.387903 1.659677,0.352564 2.542171,0.06999 0.882495,-0.282569 1.729938,-0.812228 2.294725,-1.606376 0.564787,-0.794149 0.847269,-1.853455 0.98859,-3.601243 0.141322,-1.747787 0.141322,-4.1842 0.17662,-6.320552 0.0353,-2.136351 0.105924,-3.972488 0.335395,-5.70285 0.229471,-1.730361 0.617883,-3.354632 1.147667,-4.449618 0.529783,-1.094986 1.200676,-1.659949 2.189635,-2.136702 0.988959,-0.476753 2.295438,-0.865166 3.248946,-0.688058 0.953508,0.177108 1.553784,0.918625 1.924197,2.70184 0.370414,1.783215 0.511654,4.608046 0.635233,8.050901 0.123579,3.442854 0.229512,7.503542 0.459303,9.851796 0.22979,2.348254 0.582903,2.983855 1.112797,3.389555 0.529894,0.4057 1.236095,0.582256 1.942,0.493764 0.705904,-0.08849 1.412096,-0.441588 1.994479,-1.12989 0.582382,-0.688303 1.041417,-1.712305 1.235718,-4.13091 0.194302,-2.418606 0.123677,-6.232121 -0.08814,-9.374788 -0.211813,-3.142666 -0.564915,-5.614382 -0.441398,-7.168539 0.123516,-1.554158 0.72379,-2.189742 1.465811,-2.454528 0.742022,-0.264785 1.624772,-0.158854 2.224655,1.16575 0.59988,1.324603 0.91768,3.866945 1.18247,7.415724 0.2648,3.54878 0.47666,8.103809 0.83,10.893455 0.35334,2.789646 0.84769,3.813652 1.60712,4.39584 0.75944,0.582188 1.78344,0.723428 2.5774,0.387982 0.79396,-0.335446 1.35891,-1.147574 1.69442,-2.983455 0.3355,-1.835882 0.44144,-4.696015 0.0884,-8.491925 -0.35302,-3.795911 -1.16516,-8.527494 -1.92416,-11.528921 -0.75899,-3.001427 -1.4652,-4.272605 -2.41838,-5.15568 -0.95318,-0.883074 -2.15373,-1.377414 -3.30143,-1.624803 -1.147711,-0.247389 -2.242329,-0.247389 -3.160768,0.01739 -0.91844,0.264781 -1.659956,0.794436 -2.278012,1.341851 -0.618055,0.547415 -1.112397,1.112378 -1.588769,1.024557 -0.476372,-0.08782 -0.935404,-0.829334 -1.659091,-1.465163 -0.723687,-0.635828 -1.712376,-1.165482 -2.948354,-1.44823 -1.235977,-0.282748 -2.719004,-0.318055 -4.113905,-0.212191 -1.3949,0.105863 -2.701379,0.353035 -3.778558,0.706132 -1.077179,0.353096 -1.924625,0.81213 -3.389728,0.882904 -1.465102,0.07077 -3.548413,-0.24702 -4.590565,-0.405993 -1.042152,-0.158972 -1.042158,-0.158888 -0.88324,3.566869 z"
       id="path1059"
       inkscape:path-effect="#path-effect1061"
       inkscape:original-d="m 71.983162,25.333502 c 0.318636,7.45148 0.636446,14.902101 0.953397,22.351886 8.49e-4,1.695812 8.49e-4,3.390707 0,5.084783 0.565836,0.813022 1.1308,1.625179 1.694931,2.436471 0.918949,-0.03459 1.837023,-0.06983 2.754262,-0.10602 0.848328,-0.52885 1.695776,-1.058501 2.542394,-1.589017 0.283339,-1.058501 0.565826,-2.117806 0.847464,-3.177985 8.46e-4,-2.435664 8.46e-4,-4.872077 0,-7.309384 0.07143,-1.835364 0.142086,-3.6715 0.21188,-5.508523 0.389272,-1.623497 0.777692,-3.247766 1.165264,-4.872923 0.671768,-0.56414 1.342663,-1.129101 2.012727,-1.69493 1.307385,-0.387578 2.613861,-0.775998 3.919526,-1.165264 0.601148,0.742398 1.201426,1.483913 1.800864,2.224594 0.142086,2.825788 0.283339,5.650619 0.42373,8.474651 0.106789,4.061695 0.212713,8.122384 0.317804,12.18231 0.353962,0.63644 0.707066,1.272046 1.05933,1.906788 0.707082,0.177447 1.413293,0.353965 2.118665,0.529683 0.707082,-0.3523 1.413289,-0.705368 2.118661,-1.059334 0.459902,-1.023204 0.918933,-2.047208 1.377131,-3.072071 -0.06973,-3.81282 -0.140389,-7.626335 -0.21188,-11.440773 -0.352274,-2.47098 -0.705372,-4.942697 -1.059331,-7.41532 0.601149,-0.634768 1.201426,-1.270349 1.800861,-1.906795 0.883646,0.106789 1.766397,0.212713 2.648328,0.317804 0.31867,2.543291 0.63645,5.085634 0.9534,7.627184 0.21271,4.556064 0.42458,9.111093 0.6356,13.66537 0.49521,1.024879 0.98956,2.048884 1.48306,3.072055 1.02489,0.142214 2.04889,0.283467 3.07206,0.423728 0.56584,-0.811325 1.1308,-1.62345 1.69493,-2.436471 0.10679,-2.859388 0.21271,-5.719522 0.3178,-8.580562 -0.81132,-4.73093 -1.62346,-9.462513 -2.43646,-14.195038 -0.70538,-1.270375 -1.4116,-2.541547 -2.11866,-3.813593 -1.19976,-0.493521 -2.4003,-0.987865 -3.60173,-1.483064 -1.093811,8.49e-4 -2.188429,8.49e-4 -3.283921,0 -0.740701,0.530522 -1.482216,1.060179 -2.224595,1.588997 -0.493521,0.565836 -0.987865,1.130797 -1.483064,1.694931 -0.458208,-0.740704 -0.917238,-1.482218 -1.377131,-2.224598 -0.987881,-0.528824 -1.976569,-1.058481 -2.966128,-1.588994 -1.482251,-0.0345 -2.965279,-0.06976 -4.449189,-0.105924 -1.305691,0.24801 -2.612166,0.4952 -3.919526,0.741531 -0.846634,0.459902 -1.694082,0.918933 -2.542394,1.377131 -2.082544,-0.316971 -4.165857,-0.634752 -6.250054,-0.953398 z" />
    <path
       style="fill:none;stroke:#000000;stroke-width:0.847464px;stroke-linecap:butt;stroke-linejoin:miter;stroke-opacity:1"
       d="m 130.03488,24.945035 c -3.07169,0.353068 -9.21582,1.05929 -12.87073,1.71251 -3.65491,0.65322 -4.82015,1.253495 -5.5266,2.189664 -0.70645,0.936168 -0.95362,2.207338 -0.65305,3.408072 0.30057,1.200733 1.14802,2.330666 2.50766,3.160148 1.35965,0.829481 3.23109,1.359133 5.01429,1.76515 1.7832,0.406018 3.47811,0.688502 4.87291,1.183101 1.39481,0.494599 2.48943,1.200807 3.00101,2.400019 0.51158,1.199212 0.44089,2.897042 -0.4417,4.16776 -0.88259,1.270717 -2.57748,2.118162 -4.78424,2.665535 -2.20675,0.547374 -4.92565,0.794546 -6.74448,1.253576 -1.81884,0.45903 -2.73691,1.129928 -3.2667,1.942497 -0.52979,0.812568 -0.67104,1.765947 -0.37047,2.719473 0.30057,0.953526 1.04209,1.906906 2.31337,2.400811 1.27128,0.493906 3.0721,0.529245 6.53244,-0.406595 3.46034,-0.93584 8.58034,-2.842593 11.66978,-4.519717 3.08944,-1.677123 4.14876,-3.124847 4.67848,-4.589925 0.52972,-1.465078 0.52972,-2.948107 -0.10553,-4.519415 -0.63526,-1.571309 -1.90644,-3.230897 -3.74249,-4.661222 -1.83604,-1.430324 -4.23715,-2.630878 -6.03803,-3.443112 -1.80088,-0.812235 -3.00142,-1.235955 -3.7255,-1.641723 -0.72407,-0.405768 -0.97124,-0.794181 -1.04226,-1.112277 -0.071,-0.318095 0.0349,-0.565254 0.4413,-0.830383 0.40639,-0.265129 1.1126,-0.547614 3.05484,-0.988981 1.94225,-0.441368 5.12019,-1.041647 7.13279,-1.536033 2.0126,-0.494387 2.86002,-0.882791 3.28357,-1.394299 0.42354,-0.511508 0.42354,-1.147089 0.22984,-1.553357 -0.19369,-0.406268 -0.58212,-0.582826 -1.00617,-0.56549 -0.42405,0.01733 -0.8831,0.229203 -1.11281,0.335223 -0.22971,0.106019 -0.22984,0.105923 -3.30152,0.45899 z"
       id="path1063"
       inkscape:path-effect="#path-effect1065"
       inkscape:original-d="m 133.10656,24.591968 c -6.14326,0.707066 -12.28739,1.413293 -18.43236,2.118664 -1.16444,0.601149 -2.32968,1.201426 -3.49579,1.800861 -0.24634,1.272073 -0.4935,2.543245 -0.74153,3.813593 0.84833,1.130826 1.69578,2.260757 2.54239,3.389862 1.87238,0.530519 3.74382,1.060176 5.61446,1.588994 1.69581,0.283339 3.39071,0.565829 5.08479,0.847467 1.09551,0.707082 2.19013,1.41329 3.28392,2.118662 8.6e-4,1.695811 -0.1403,3.390707 -0.21172,5.084789 -1.69413,0.848329 -3.38902,1.695776 -5.0848,2.542395 -2.71816,0.248041 -5.43706,0.495199 -8.15685,0.74153 -0.91726,0.671769 -1.83533,1.342666 -2.75426,2.012731 -0.14039,0.954262 -0.28164,1.90764 -0.42374,2.860185 0.7424,0.954275 1.48392,1.907653 2.2246,2.860198 1.80174,0.03619 3.60257,0.07143 5.40259,0.10602 5.12105,-1.905987 10.24105,-3.812743 15.36031,-5.720373 1.06019,-1.446938 2.1195,-2.894663 3.178,-4.343259 8.3e-4,-1.482251 8.3e-4,-2.96528 0,-4.449189 -1.27038,-1.658804 -2.54156,-3.318393 -3.81361,-4.978856 -2.40034,-1.199758 -4.80145,-2.400303 -7.20345,-3.601729 -1.19976,-0.422891 -2.4003,-0.846615 -3.60173,-1.271197 -0.24634,-0.387578 -0.4935,-0.775998 -0.74153,-1.165264 0.10679,-0.246344 0.21272,-0.493502 0.31781,-0.741531 0.70708,-0.281641 1.41329,-0.564132 2.11866,-0.847464 3.17889,-0.599455 6.35683,-1.199732 9.53397,-1.800865 0.84835,-0.387581 1.69577,-0.775998 2.54239,-1.165264 8.7e-4,-0.634767 8.7e-4,-1.270348 0,-1.906797 -0.38756,-0.175718 -0.77599,-0.352265 -1.16526,-0.529664 -0.45819,0.212712 -0.91724,0.424579 -1.37713,0.635597 z" />
    <path
       style="fill:none;stroke:#000000;stroke-width:0.847464px;stroke-linecap:butt;stroke-linejoin:miter;stroke-opacity:1"
       d="m 153.80481,10.905957 c 0,-1.1231666 0,-3.3703456 -0.3992,-5.1430572 -0.3992,-1.7727116 -1.1982,-3.071065 -2.14689,-3.7456934 -0.94869,-0.6746285 -2.04726,-0.7245616 -3.07147,-0.1752097 -1.0242,0.549352 -1.973,1.6978927 -2.44736,3.4211254 -0.47436,1.7232327 -0.47436,4.0203116 -0.39942,6.0927539 0.0749,2.072443 0.22475,3.920092 -0.42408,4.868434 -0.64882,0.948341 -2.097,0.998276 -3.27075,1.222928 -1.17375,0.224652 -2.07259,0.624134 -2.69709,1.298622 -0.6245,0.674488 -0.97405,1.62328 -1.07375,2.49743 -0.0997,0.87415 0.0501,1.673151 0.52491,2.14716 0.47481,0.474009 1.2738,0.623818 2.29733,0.52377 1.02353,-0.100049 2.27194,-0.449602 3.32034,-1.048776 1.0484,-0.599173 1.89733,-1.448094 2.34679,-0.44889 0.44946,0.999204 0.49943,3.845577 0.47447,6.442317 -0.0249,2.596739 -0.12478,4.943757 -0.47437,7.815119 -0.34958,2.871363 -0.94883,6.267038 -1.3733,8.738958 -0.42446,2.471919 -0.67414,4.019943 -0.69898,5.418329 -0.0248,1.398386 0.17491,2.646808 0.74964,3.495505 0.57472,0.848697 1.52351,1.298122 2.522,1.347736 0.99849,0.04961 2.04716,-0.29994 3.07058,-1.12377 1.02343,-0.82383 2.02218,-2.122197 2.64639,-3.570098 0.62421,-1.447901 0.87389,-3.045874 0.94889,-4.943421 0.075,-1.897548 -0.0248,-4.094748 -0.19957,-6.766414 -0.17474,-2.671666 -0.42442,-5.817657 -0.5493,-8.564268 -0.12488,-2.74661 -0.12488,-5.093611 0.0748,-6.616995 0.19967,-1.523383 0.59917,-2.222497 1.32377,-2.572194 0.72459,-0.349697 1.77329,-0.349697 2.82171,-0.624443 1.04842,-0.274745 2.09709,-0.824045 2.87089,-1.522968 0.7738,-0.698922 1.27315,-1.54783 1.62271,-2.346662 0.34956,-0.798832 0.54931,-1.547898 0.47488,-2.122022 -0.0744,-0.574124 -0.42399,-0.973616 -1.04819,-1.173815 -0.6242,-0.200199 -1.52306,-0.200199 -2.49717,0.149304 -0.97411,0.349503 -2.02278,1.04861 -2.97129,1.42318 -0.94851,0.37457 -1.79744,0.424505 -2.17241,-0.174344 -0.37497,-0.598849 -0.27515,-1.847264 -0.2252,-2.471869 0.0499,-0.624605 0.0497,-0.624595 0.0497,-1.747762 z"
       id="path1067"
       inkscape:path-effect="#path-effect1069"
       inkscape:original-d="m 153.80481,12.029124 c 8.3e-4,-2.2463336 8.3e-4,-4.4935126 0,-6.7415404 -0.79816,-1.2975454 -1.59716,-2.5958947 -2.39701,-3.8951089 -1.09781,-0.04907 -2.19638,-0.099037 -3.29584,-0.1498051 -0.948,1.1494315 -1.8968,2.2979693 -2.84643,3.4456711 8.3e-4,2.2980141 8.3e-4,4.595093 0,6.8913583 0.15054,1.848567 0.30044,3.696208 0.44942,5.543045 -1.44735,0.05077 -2.89553,0.100735 -4.34454,0.149805 -0.89807,0.400352 -1.7969,0.799848 -2.69662,1.198495 -0.34872,0.949679 -0.69829,1.898464 -1.04867,2.846432 0.15054,0.79986 0.30044,1.598843 0.44941,2.396987 0.79986,0.15067 1.59885,0.300475 2.39701,0.449435 1.24931,-0.348716 2.49772,-0.698268 3.74529,-1.048678 0.84979,-0.848111 1.69872,-1.697025 2.54682,-2.546811 0.0506,2.847338 0.10057,5.693711 0.1499,8.539294 -0.099,2.347944 -0.19891,4.694958 -0.29948,7.041164 -0.59842,3.396656 -1.19768,6.792328 -1.79776,10.187221 -0.24888,1.548928 -0.49852,3.096959 -0.74906,4.644167 0.20051,1.249311 0.40035,2.497719 0.59925,3.745294 0.94967,0.450312 1.89846,0.899727 2.84643,1.34831 1.04953,-0.348713 2.0982,-0.698258 3.14603,-1.048668 0.99963,-1.297542 1.99837,-2.595917 2.99627,-3.895122 0.25047,-1.597181 0.50021,-3.195144 0.74905,-4.793981 -0.099,-2.196443 -0.1989,-4.393639 -0.29948,-6.591735 -0.24887,-3.145263 -0.49852,-6.291257 -0.74906,-9.438157 8.7e-4,-2.346259 8.7e-4,-4.69326 0,-7.041171 0.40035,-0.698286 0.79986,-1.397393 1.19851,-2.097364 1.04953,8.46e-4 2.09823,8.46e-4 3.14603,0 1.04957,-0.548472 2.09824,-1.097773 3.14607,-1.64793 0.50025,-0.848111 0.9996,-1.697022 1.49812,-2.546811 0.2005,-0.748225 0.40034,-1.497267 0.59925,-2.247179 -0.34871,-0.398658 -0.69826,-0.798151 -1.04867,-1.198492 -0.89806,8.45e-4 -1.79692,8.45e-4 -2.69662,0 -1.04787,0.699977 -2.09653,1.399097 -3.14607,2.097364 -0.84809,0.05077 -1.69702,0.100735 -2.54678,0.149805 0.10058,-1.247614 0.20051,-2.496021 0.29948,-3.745304 z" />
    <path
       id="path1071"
       style="fill:none;stroke:#000000;stroke-width:0.847464px;stroke-linecap:butt;stroke-linejoin:miter;stroke-opacity:1"
       d="m 172.05022,25.083567 c -0.36222,-0.0019 -0.73211,0.01159 -1.10733,0.03807 -1.50085,0.10583 -3.08998,0.424257 -4.83816,1.342367 -1.74818,0.918118 -3.65398,2.435139 -5.01362,3.989052 -1.35963,1.553902 -2.1728,3.142951 -2.5788,4.891126 -0.40601,1.748178 -0.40568,3.656244 -0.14071,5.510175 0.26499,1.853939 0.79419,3.653682 1.85383,5.260238 1.05963,1.606566 2.6499,3.019859 4.18601,3.990706 1.53611,0.970848 3.01922,1.500383 4.92589,1.623751 1.90668,0.12338 4.23576,-0.159959 6.19543,-0.566073 1.95967,-0.406123 3.54902,-0.935281 4.34326,-1.200026 0.79424,-0.264762 0.79391,-0.26537 0.9352,-0.388971 0.14128,-0.123637 0.42379,-0.370663 0.58263,-0.776296 0.15884,-0.40563 0.19535,-0.970473 -0.0513,-1.464859 -0.24667,-0.494385 -0.77736,-0.918253 -1.50128,-1.130501 -0.72391,-0.212232 -1.64195,-0.212424 -2.91316,-0.230073 -1.2712,-0.01762 -2.89495,-0.05301 -4.06021,-0.105924 -1.16527,-0.05295 -1.87095,-0.122259 -2.57716,-0.42208 -0.7062,-0.299835 -1.41323,-0.829406 -1.94321,-1.62376 -0.52997,-0.794345 -0.88306,-1.854185 -1.02457,-2.560598 -0.14151,-0.706412 -0.0716,-1.058933 0.19365,-1.271197 0.26525,-0.212264 0.7255,-0.283051 1.74955,-0.388978 1.02405,-0.105923 2.61308,-0.248233 3.97249,-0.460139 1.35942,-0.211911 2.4891,-0.493828 3.53055,-0.988162 1.04146,-0.494335 1.99467,-1.201442 2.68309,-2.242798 0.68842,-1.041364 1.11214,-2.418454 1.2712,-3.477589 0.15906,-1.059135 0.0531,-1.799701 -0.40553,-2.558944 -0.45864,-0.759252 -1.2712,-1.537089 -2.17161,-2.313986 -0.9004,-0.776896 -1.88801,-1.552793 -3.08861,-1.994525 -0.90045,-0.331291 -1.92081,-0.474157 -3.00751,-0.480004 z m -0.87725,5.114578 c 0.30637,-0.0077 0.59174,0.02466 0.83753,0.09766 0.71501,0.212393 1.08664,0.776322 1.2894,1.332436 0.20275,0.556124 0.23837,1.103376 0.053,1.570795 -0.18539,0.467416 -0.59281,0.855811 -1.49299,1.252991 -0.90018,0.397175 -2.29433,0.80366 -3.22103,0.945121 -0.9267,0.141445 -1.38606,0.01858 -1.63369,-0.175461 -0.24762,-0.193879 -0.28186,-0.459675 -0.29961,-0.592565 -0.0176,-0.132893 -0.0183,-0.131676 0.0348,-0.466766 0.0529,-0.335106 0.15939,-1.00601 0.57436,-1.694931 0.41496,-0.688921 1.13897,-1.395301 2.03094,-1.819073 0.58535,-0.278086 1.24246,-0.435566 1.82734,-0.450216 z" />
    <path
       style="fill:none;stroke:#000000;stroke-width:0.847464px;stroke-linecap:butt;stroke-linejoin:miter;stroke-opacity:1"
       d="m 185.43755,26.357968 c 0.10596,1.765999 0.31783,5.297102 0.42374,8.792905 0.10591,3.495803 0.10591,6.956221 0.0353,9.710466 -0.0707,2.754244 -0.21189,4.802244 0.0356,6.320723 0.24752,1.51848 0.88313,2.507193 1.65997,2.895041 0.77684,0.387849 1.6949,0.175994 2.2595,-0.459222 0.5646,-0.635217 0.77646,-1.694527 0.81186,-3.67185 0.0354,-1.977324 -0.10584,-4.872765 1e-5,-7.309355 0.10586,-2.43659 0.45896,-4.413972 1.02392,-6.144406 0.56496,-1.730433 1.34178,-3.213465 2.43665,-4.378974 1.09487,-1.165509 2.50727,-2.012951 3.95539,-2.330608 1.44811,-0.317657 2.93117,-0.105791 4.061,0.530228 1.12983,0.636019 1.90667,1.695331 2.96595,2.047883 1.05928,0.352552 2.40108,-5.53e-4 3.0717,-0.635663 0.67062,-0.63511 0.67062,-1.553178 0.14138,-2.506598 -0.52923,-0.953419 -1.58856,-1.942122 -2.54189,-2.577955 -0.95332,-0.635833 -1.80078,-0.91832 -3.10739,-1.059734 -1.30661,-0.141414 -3.07215,-0.141414 -4.87316,0.10569 -1.80102,0.247105 -3.63715,0.741449 -5.01462,1.589065 -1.37747,0.847615 -2.29554,2.048174 -2.93079,2.366392 -0.63525,0.318217 -0.98834,-0.246729 -1.12995,-0.95307 -0.14161,-0.706341 -0.071,-1.553808 -0.21202,-2.330527 -0.14099,-0.776718 -0.49409,-1.482927 -1.05899,-1.765983 -0.5649,-0.283056 -1.34173,-0.141814 -1.73048,-0.07113 -0.38876,0.07068 -0.38863,0.07068 -0.28267,1.836683 z"
       id="path1193"
       inkscape:path-effect="#path-effect1195"
       inkscape:original-d="m 185.33159,24.591968 c 0.21268,3.531954 0.42459,7.063054 0.63561,10.593313 8.3e-4,3.461395 8.3e-4,6.921813 0,10.381446 -0.1403,2.048925 -0.28155,4.096924 -0.42373,6.14412 0.63644,0.989562 1.27205,1.97827 1.90679,2.966112 0.91894,-0.211079 1.83702,-0.422862 2.75424,-0.635575 0.21268,-1.058533 0.42459,-2.117834 0.63561,-3.178001 -0.1403,-2.89472 -0.28155,-5.790161 -0.42373,-8.686518 0.35396,-1.976607 0.70706,-3.95399 1.05933,-5.932253 0.77769,-1.482251 1.55452,-2.96528 2.33052,-4.449189 1.41333,-0.846634 2.82573,-1.694082 4.23733,-2.542396 1.48393,0.212712 2.96699,0.424579 4.44919,0.635598 0.77772,1.060196 1.55455,2.11951 2.33054,3.177995 1.34268,-0.352274 2.68448,-0.705371 4.02546,-1.059334 8.3e-4,-0.91726 8.3e-4,-1.835328 0,-2.754259 -1.0585,-0.987881 -2.11784,-1.976569 -3.178,-2.966128 -0.84662,-0.281641 -1.69408,-0.564131 -2.5424,-0.847464 -1.76473,8.46e-4 -3.53027,8.46e-4 -5.29667,0 -1.83536,0.495206 -3.67149,0.989559 -5.50851,1.483064 -0.91725,1.201442 -1.83533,2.401994 -2.75425,3.601726 -0.3523,-0.564141 -0.70536,-1.129106 -1.05933,-1.694931 0.0714,-0.846635 0.14221,-1.694082 0.21172,-2.542395 -0.35227,-0.705388 -0.70537,-1.411598 -1.05933,-2.118661 -0.776,0.142086 -1.55283,0.283339 -2.33052,0.42373 z" />
    <path
       style="fill:none;stroke:#000000;stroke-width:0.264583px;stroke-linecap:butt;stroke-linejoin:miter;stroke-opacity:1"
       d="m 12.608362,76.167245 c -0.71722,-1.153693 -1.527937,-2.775128 -1.808666,-4.271905 -0.28073,-1.496777 -0.03128,-2.868734 0.53017,-3.336476 0.561453,-0.467743 1.434515,-0.03121 2.213967,0.997873 0.779452,1.029084 1.46543,2.650488 1.995507,3.9913 0.530077,1.340813 0.904247,2.400959 1.371891,2.36966 0.467645,-0.0313 1.0289,-1.153808 1.465446,-2.338675 0.436547,-1.184867 0.748355,-2.4321 1.247302,-3.336473 0.498948,-0.904372 1.184926,-1.465627 1.964616,-1.590281 0.77969,-0.124654 1.652753,0.187155 1.964388,1.122665 0.311636,0.93551 0.06219,2.494551 -1.309825,5.30085 -1.372013,2.8063 -3.866479,6.859806 -5.737287,9.135992 -1.870808,2.276187 -3.118041,2.77508 -4.146946,2.86871 -1.028904,0.09363 -1.839606,-0.218178 -2.5256377,-0.685829 -0.686032,-0.46765 -1.2472876,-1.091267 -1.4968749,-1.714923 -0.2495873,-0.623656 -0.1872257,-1.247274 0.2183026,-1.496816 0.4055283,-0.249543 1.1538678,-0.124819 1.777468,0.249485 0.6236,0.374304 1.122492,0.997919 1.839617,1.091287 0.717125,0.09337 1.652549,-0.343163 2.307282,-0.873188 0.654733,-0.530025 1.028903,-1.153642 0.997806,-1.99543 -0.0311,-0.841789 -0.467628,-1.901937 -0.997659,-2.775046 -0.53003,-0.873109 -1.153648,-1.559087 -1.870867,-2.71278 z"
       id="path1330"
       inkscape:path-effect="#path-effect1332"
       inkscape:original-d="m 12.701701,76.63467 c -0.810453,-1.621171 -1.62117,-3.242606 -2.432153,-4.864306 0.249722,-1.371746 0.499168,-2.743703 0.748355,-4.115951 0.873363,0.436814 1.746425,0.873345 2.619241,1.309621 0.686271,1.621732 1.372249,3.243136 2.057976,4.864307 0.374449,1.060455 0.748619,2.120601 1.122532,3.180506 0.561542,-1.122289 1.122796,-2.244799 1.683798,-3.367596 0.312085,-1.247018 0.623893,-2.494251 0.935443,-3.741774 0.68627,-0.561012 1.372248,-1.122267 2.057976,-1.683798 0.873362,0.312087 1.746425,0.623895 2.619241,0.935445 -0.249192,1.559367 -0.498639,3.118408 -0.748355,4.677217 -2.494301,4.053932 -4.988766,8.107439 -7.483547,12.160763 -1.247018,0.499176 -2.494251,0.998069 -3.741773,1.496708 -0.810469,-0.311555 -1.62117,-0.623364 -2.4321524,-0.935442 -0.5610127,-0.623377 -1.1222675,-1.246995 -1.683798,-1.870887 0.062629,-0.623377 0.1249902,-1.246995 0.1870884,-1.870888 0.7486343,0.124995 1.4969741,0.249717 2.245064,0.374179 0.499178,0.623906 0.998071,1.247521 1.496709,1.870885 0.935727,-0.436285 1.871152,-0.872815 2.806331,-1.309619 0.374449,-0.623377 0.748619,-1.246994 1.122531,-1.870887 -0.436284,-1.059926 -0.872815,-2.120074 -1.30962,-3.180509 -0.623377,-0.685739 -1.246993,-1.371719 -1.870887,-2.057974 z" />
    <path
       style="fill:none;stroke:#000000;stroke-width:0.264583px;stroke-linecap:butt;stroke-linejoin:miter;stroke-opacity:1"
       d="m 29.228032,70.959673 c -1.309764,0.374133 -2.55702,1.4343 -3.243036,2.681702 -0.686015,1.247401 -0.810738,2.681721 -0.4364,3.77308 0.374338,1.091359 1.247401,1.839699 2.463489,2.244943 1.216087,0.405243 2.775129,0.467605 4.022259,0.03105 1.24713,-0.436556 2.182554,-1.371979 2.587927,-2.432016 0.405372,-1.060037 0.280649,-2.244908 -0.0311,-3.273892 -0.311745,-1.028984 -0.810638,-1.902048 -1.74603,-2.49462 -0.935392,-0.592572 -2.307349,-0.90438 -3.617113,-0.530247 z"
       id="path1334"
       inkscape:path-effect="#path-effect1336"
       inkscape:original-d="m 29.165504,70.273656 c -1.246994,1.060434 -2.494251,2.120601 -3.741774,3.180506 -0.124463,1.434639 -0.249187,2.868959 -0.374177,4.30304 0.873363,0.748633 1.746426,1.496973 2.619241,2.245064 1.559368,0.06263 3.11841,0.124989 4.677216,0.187089 0.935728,-0.935199 1.871152,-1.870622 2.806332,-2.806329 -0.124465,-1.184656 -0.249187,-2.369527 -0.374179,-3.554685 -0.498647,-0.872834 -0.99754,-1.745898 -1.496708,-2.619243 -1.371746,-0.311555 -2.743703,-0.623364 -4.115951,-0.935442 z" />
    <path
       style="fill:none;stroke:#000000;stroke-width:0.264583px;stroke-linecap:butt;stroke-linejoin:miter;stroke-opacity:1"
       d="m 29.859506,73.695859 c -0.42885,0.03888 -0.912162,0.272744 -1.21626,0.654844 -0.304098,0.382101 -0.428821,0.912175 -0.413134,1.348783 0.01569,0.436607 0.171591,0.779596 0.499083,1.005537 0.327492,0.225941 0.826385,0.335073 1.325171,0.22588 0.498785,-0.109193 0.997678,-0.436591 1.309437,-0.810667 0.311758,-0.374075 0.436481,-0.795016 0.350884,-1.16135 -0.0856,-0.366334 -0.381816,-0.678144 -0.716988,-0.912075 -0.335173,-0.233931 -0.709344,-0.389836 -1.138193,-0.350952 z"
       id="path1338"
       inkscape:path-effect="#path-effect1340"
       inkscape:original-d="m 29.913859,73.500935 c -0.48305,0.234124 -0.966361,0.467987 -1.449938,0.701582 -0.124462,0.53036 -0.249187,1.060434 -0.374177,1.590254 0.156175,0.343268 0.31208,0.686256 0.467721,1.028989 0.499179,0.1094 0.998072,0.218532 1.496711,0.327403 0.499176,-0.327147 0.998069,-0.654545 1.496708,-0.982215 C 31.675878,75.746255 31.8006,75.325314 31.92506,74.9041 31.629097,74.592545 31.332878,74.280736 31.036391,73.968657 30.662471,73.813011 30.2883,73.657108 29.913859,73.500935 Z" />
    <path
       style="fill:none;stroke:#000000;stroke-width:0.264583px;stroke-linecap:butt;stroke-linejoin:miter;stroke-opacity:1"
       d="m 37.833929,71.27157 c -0.124743,0.810827 -0.374195,2.432262 -0.452121,3.897835 -0.07793,1.465573 0.01562,2.775169 0.421121,3.694994 0.405505,0.919826 1.122664,1.449901 1.933365,1.683643 0.810701,0.233741 1.714942,0.17138 2.63473,-0.109275 0.919788,-0.280655 1.855214,-0.779549 2.494362,-1.434277 0.639147,-0.654727 0.982136,-1.465429 1.20041,-2.042264 0.218274,-0.576836 0.311816,-0.919823 0.358613,-0.545593 0.0468,0.374231 0.0468,1.465558 0.1716,2.276308 0.124803,0.810749 0.374249,1.340824 0.779678,1.621306 0.40543,0.280481 0.966682,0.31166 1.43425,0.06222 0.467568,-0.249439 0.841738,-0.779512 0.82622,-1.605699 -0.01552,-0.826187 -0.420869,-1.948695 -0.670369,-3.164803 -0.249501,-1.216107 -0.343043,-2.525703 -0.374241,-3.570302 -0.0312,-1.0446 -1.7e-5,-1.824121 -0.140179,-2.245168 -0.140162,-0.421046 -0.451971,-0.483409 -0.826253,-0.40551 -0.374282,0.0779 -0.810812,0.296164 -1.34098,0.935461 -0.530167,0.639298 -1.153783,1.699446 -1.777402,2.588093 -0.62362,0.888648 -1.247237,1.605808 -1.823935,1.902057 -0.576699,0.296249 -1.106774,0.171525 -1.434307,-0.233726 -0.327534,-0.40525 -0.452257,-1.09123 -0.530232,-1.746058 -0.07798,-0.654828 -0.109158,-1.278446 -0.327317,-1.824123 -0.21816,-0.545677 -0.623511,-1.01339 -1.013311,-1.200643 -0.3898,-0.187252 -0.763972,-0.09371 -0.997954,0.06229 -0.233982,0.155997 -0.327524,0.374263 -0.374269,0.483334 -0.04674,0.10907 -0.04674,0.109073 -0.171479,0.9199 z"
       id="path1342"
       inkscape:path-effect="#path-effect1344"
       inkscape:original-d="m 37.958672,70.460743 c -0.249188,1.6217 -0.49864,3.243135 -0.748356,4.864306 0.09381,1.309912 0.187354,2.619507 0.280633,3.928861 0.717452,0.53036 1.434611,1.060434 2.15152,1.590255 0.904545,-0.0621 1.808787,-0.12446 2.712786,-0.18709 0.935726,-0.498647 1.871152,-0.99754 2.80633,-1.496708 0.343268,-0.810469 0.686255,-1.621171 1.028988,-2.432153 0.09381,-0.342739 0.187352,-0.685726 0.280633,-1.028989 2.65e-4,1.091639 2.65e-4,2.182966 0,3.274052 0.249719,0.53036 0.499166,1.060434 0.748353,1.590255 0.561544,0.03145 1.122796,0.06263 1.683798,0.09354 0.374451,-0.529828 0.74862,-1.059902 1.122534,-1.590252 -0.405103,-1.122291 -0.810453,-2.244799 -1.216078,-3.367598 -0.09328,-1.30938 -0.186825,-2.618975 -0.280633,-3.928861 0.03145,-0.779285 0.06263,-1.558806 0.09354,-2.338607 -0.311555,-0.0621 -0.623364,-0.124463 -0.935442,-0.18709 -0.436285,0.218541 -0.872816,0.436806 -1.309622,0.65481 -0.623377,1.060455 -1.246992,2.120603 -1.870884,3.180508 -0.623377,0.717452 -1.246995,1.434611 -1.870888,2.151521 -0.52983,-0.124466 -1.059905,-0.249188 -1.590254,-0.37418 -0.124463,-0.685739 -0.249187,-1.371719 -0.374176,-2.057974 -0.03092,-0.623376 -0.0621,-1.246994 -0.09355,-1.870887 -0.405101,-0.467466 -0.810454,-0.935178 -1.216076,-1.403165 -0.373919,0.09381 -0.748091,0.187354 -1.122532,0.280633 -0.09328,0.218541 -0.186824,0.436806 -0.280632,0.65481 z" />
    <path
       style="fill:none;stroke:#000000;stroke-width:0.264583px;stroke-linecap:butt;stroke-linejoin:miter;stroke-opacity:1"
       d="m 52.121422,70.746631 c -0.264598,1.389219 -0.132307,3.682272 0.04411,5.402088 0.176412,1.719817 0.396894,2.866323 0.815952,3.527675 0.419058,0.661352 1.036407,0.837738 1.433106,0.462961 0.3967,-0.374777 0.573085,-1.300801 0.617216,-2.182712 0.04413,-0.881911 -0.04406,-1.719741 0.0441,-2.601753 0.08816,-0.882011 0.352735,-1.808034 0.83793,-2.359361 0.485194,-0.551328 1.190735,-0.727713 1.896364,-0.683531 0.705629,0.04418 1.41117,0.308761 2.094555,0.220482 0.683385,-0.08828 1.34483,-0.529242 1.56534,-1.058236 0.22051,-0.528993 2.8e-5,-1.146342 -0.462897,-1.587416 -0.462925,-0.441074 -1.168466,-0.705652 -2.05048,-0.727779 -0.882014,-0.02213 -1.940327,0.198354 -2.734176,0.551152 -0.79385,0.352798 -1.323006,0.837859 -1.719768,0.926197 -0.396763,0.08834 -0.66134,-0.220336 -0.771713,-0.661334 -0.110374,-0.440999 -0.06628,-1.01425 -0.374933,-1.058481 -0.308655,-0.04423 -0.9701,0.440829 -1.234698,1.830048 z"
       id="path1346"
       inkscape:path-effect="#path-effect1348"
       inkscape:original-d="m 51.724516,69.842515 c 0.132556,2.293321 0.264848,4.586374 0.396875,6.879166 0.220755,1.146815 0.441238,2.293321 0.661459,3.439583 0.617638,0.176657 1.234987,0.353042 1.852083,0.529167 0.176657,-0.925795 0.353041,-1.851819 0.529166,-2.778125 -0.08793,-0.837599 -0.176125,-1.675429 -0.264583,-2.513541 0.264853,-0.925796 0.529431,-1.851819 0.79375,-2.778125 0.705834,-0.176128 1.411375,-0.352513 2.116667,-0.529167 0.705834,0.264853 1.411375,0.529431 2.116666,0.79375 0.661737,-0.440717 1.323182,-0.881679 1.984375,-1.322917 -0.220226,-0.617109 -0.440708,-1.234458 -0.661458,-1.852083 -0.705305,-0.264324 -1.410846,-0.528902 -2.116667,-0.79375 -1.058089,0.220755 -2.116402,0.441238 -3.175,0.661458 -0.528912,0.485344 -1.058068,0.970405 -1.587499,1.455209 -0.264325,-0.308423 -0.528903,-0.617096 -0.79375,-0.926042 0.04436,-0.573011 0.08846,-1.146262 0.132291,-1.719792 -0.661207,0.485344 -1.322652,0.970405 -1.984375,1.455209 z" />
    <path
       style="fill:none;stroke:#000000;stroke-width:0.264583px;stroke-linecap:butt;stroke-linejoin:miter;stroke-opacity:1"
       d="m 68.768247,79.588244 c -0.198582,-1.322887 -0.286777,-3.748233 -0.308833,-5.820828 -0.02206,-2.072595 0.02204,-3.792352 0.242506,-5.137389 0.220466,-1.345036 0.617333,-2.315156 1.411172,-3.109005 0.79384,-0.793849 1.984442,-1.411198 2.998774,-1.697796 1.014333,-0.286599 1.852163,-0.242502 2.469494,0.06633 0.617332,0.30883 1.014198,0.882082 1.124309,1.345008 0.11011,0.462926 -0.06628,0.815698 -0.418939,1.058157 -0.352663,0.24246 -0.881819,0.374749 -1.499148,0.440918 -0.617329,0.06617 -1.32287,0.06617 -1.98445,0.308695 -0.661579,0.242526 -1.278929,0.727587 -1.609685,1.278944 -0.330755,0.551357 -0.374851,1.168706 -0.264465,1.60969 0.110387,0.440985 0.374965,0.705563 1.10257,0.793615 0.727606,0.08805 1.918208,-1.4e-4 2.711972,0.154346 0.793764,0.154485 1.190631,0.551352 1.234571,0.992231 0.04394,0.440879 -0.264734,0.925939 -0.771697,1.146399 -0.506963,0.22046 -1.212504,0.176364 -1.962235,0.308623 -0.749731,0.132259 -1.543465,0.440933 -1.962464,1.124604 -0.419,0.683671 -0.463096,1.741984 -0.48514,2.623941 -0.02204,0.881957 -0.02204,1.587498 -0.220508,2.270918 -0.198465,0.683421 -0.595332,1.344866 -0.947939,1.565418 -0.352607,0.220553 -0.661282,7.1e-5 -0.859865,-1.322817 z"
       id="path1350"
       inkscape:path-effect="#path-effect1352"
       inkscape:original-d="m 68.657849,80.690431 c -0.08793,-2.425083 -0.176125,-4.850429 -0.264583,-7.276041 0.04436,-1.719562 0.08846,-3.439319 0.132292,-5.159375 0.397147,-0.969894 0.794014,-1.940013 1.190625,-2.910417 1.190913,-0.617109 2.381514,-1.234459 3.571875,-1.852083 0.838128,0.04436 1.675958,0.08846 2.513541,0.132291 0.397148,0.57354 0.794015,1.146792 1.190625,1.719792 -0.176128,0.353049 -0.352512,0.705821 -0.529166,1.058333 -0.528913,0.132559 -1.058069,0.264848 -1.5875,0.396875 -0.705305,2.65e-4 -1.410846,2.65e-4 -2.116667,0 -0.617109,0.485344 -1.234459,0.970405 -1.852083,1.455209 -0.04383,0.617638 -0.08793,1.234987 -0.132292,1.852083 0.264853,0.264853 0.529431,0.529431 0.79375,0.79375 1.190913,-0.08793 2.381515,-0.176125 3.571875,-0.264583 0.397147,0.397147 0.794014,0.794014 1.190625,1.190625 -0.308422,0.485343 -0.617096,0.970404 -0.926042,1.455208 -0.705305,-0.04383 -1.410845,-0.08793 -2.116666,-0.132292 -0.793502,0.308952 -1.587236,0.617625 -2.38125,0.926042 -0.04383,1.058619 -0.08793,2.116931 -0.132292,3.175 2.65e-4,0.705834 2.65e-4,1.411375 0,2.116666 -0.396618,0.661737 -0.793485,1.323182 -1.190625,1.984375 -0.308422,-0.220225 -0.617096,-0.440708 -0.926042,-0.661458 z" />
    <path
       style="fill:none;stroke:#000000;stroke-width:0.264583px;stroke-linecap:butt;stroke-linejoin:miter;stroke-opacity:1"
       d="m 77.256787,74.15312 c -0.132311,0.672584 -0.396895,2.017551 -0.59533,3.153072 -0.198434,1.135522 -0.330723,2.061545 -0.330633,2.667932 9.1e-5,0.606387 0.132381,0.893015 0.330879,1.036172 0.198499,0.143156 0.463077,0.143156 0.683407,-0.143398 0.22033,-0.286554 0.396715,-0.859805 0.595158,-1.609456 0.198443,-0.749651 0.418924,-1.675674 0.716592,-2.381311 0.297668,-0.705636 0.672488,-1.190697 1.13563,-1.488394 0.463142,-0.297696 1.014348,-0.407937 1.554562,-0.485097 0.540215,-0.07716 1.069371,-0.121257 1.344853,-0.352637 0.275481,-0.23138 0.297531,-0.650294 0.176424,-0.936962 -0.121107,-0.286667 -0.385684,-0.441004 -0.870834,-0.408046 -0.48515,0.03296 -1.190691,0.25344 -1.730873,0.407785 -0.540183,0.154344 -0.915,0.242536 -1.13554,0.165543 -0.220541,-0.07699 -0.286685,-0.319522 -0.551213,-0.396868 -0.264528,-0.07735 -0.727538,0.01085 -0.959152,0.05496 -0.231614,0.04412 -0.231618,0.04412 -0.36393,0.716702 z"
       id="path1354"
       inkscape:path-effect="#path-effect1356"
       inkscape:original-d="m 77.389099,73.480535 c -0.264319,1.345229 -0.528902,2.690196 -0.79375,4.034896 -0.13203,0.926325 -0.264319,1.852348 -0.396875,2.778125 0.132559,0.286901 0.264848,0.573529 0.396875,0.859896 0.264853,2.65e-4 0.529431,2.65e-4 0.79375,0 0.176657,-0.573011 0.353042,-1.146262 0.529167,-1.719792 0.220755,-0.925795 0.441238,-1.851818 0.661458,-2.778125 0.375097,-0.484814 0.749917,-0.969875 1.124479,-1.455208 0.55149,-0.109982 1.102696,-0.220221 1.653646,-0.330729 0.529442,-0.04383 1.058598,-0.08793 1.5875,-0.132292 0.02231,-0.418669 0.04436,-0.837583 0.06615,-1.256771 -0.264324,-0.15408 -0.528902,-0.308416 -0.79375,-0.46302 -0.705305,0.220755 -1.410846,0.441237 -2.116667,0.661458 -0.37457,0.08846 -0.749387,0.176654 -1.124479,0.264583 -0.06588,-0.242276 -0.132027,-0.484804 -0.198437,-0.727604 -0.462767,0.08846 -0.925777,0.176654 -1.389063,0.264583 z" />
    <path
       style="fill:none;stroke:#000000;stroke-width:0.264583px;stroke-linecap:butt;stroke-linejoin:miter;stroke-opacity:1"
       d="m 84.426889,74.249338 c -0.366507,0.545769 -0.756274,1.559165 -0.982322,2.479076 -0.226048,0.919912 -0.28841,1.746206 -0.249383,2.432237 0.03903,0.686031 0.179342,1.231695 0.413324,1.558998 0.233982,0.327302 0.561381,0.436435 0.865248,0.358423 0.303867,-0.07801 0.584495,-0.343049 0.826123,-0.779513 0.241628,-0.436464 0.444304,-1.044489 0.576845,-1.956513 0.132542,-0.912023 0.194903,-2.128075 0.117026,-2.977739 -0.07788,-0.849665 -0.296144,-1.332968 -0.576755,-1.535828 -0.280611,-0.20286 -0.623599,-0.124909 -0.990106,0.420859 z"
       id="path1358"
       inkscape:path-effect="#path-effect1360"
       inkscape:original-d="m 84.450204,73.781568 c -0.389504,1.013661 -0.779272,2.027057 -1.169302,3.040192 -0.0621,0.826587 -0.124463,1.652881 -0.18709,2.478923 0.140584,0.545952 0.280898,1.091616 0.42095,1.637025 0.327675,0.109403 0.655074,0.218535 0.982215,0.327406 0.280903,-0.264782 0.56153,-0.52982 0.841899,-0.795126 0.202948,-0.607787 0.405622,-1.215813 0.608039,-1.824114 0.06263,-1.215837 0.124989,-2.431889 0.187087,-3.648231 -0.218009,-0.483055 -0.436274,-0.966359 -0.65481,-1.449935 -0.342738,0.07822 -0.685726,0.15617 -1.028988,0.23386 z" />
    <path
       style="fill:none;stroke:#000000;stroke-width:0.264583px;stroke-linecap:butt;stroke-linejoin:miter;stroke-opacity:1"
       d="m 84.886755,70.889524 c -0.187152,0.210554 -0.311879,0.475597 -0.280589,0.795311 0.03129,0.319714 0.218375,0.693886 0.452247,0.841813 0.233873,0.147927 0.5145,0.06997 0.740452,-0.210562 0.225952,-0.280537 0.397447,-0.763841 0.350839,-1.122382 -0.04661,-0.358541 -0.311644,-0.592396 -0.568998,-0.631518 -0.257354,-0.03912 -0.5068,0.116783 -0.693951,0.327338 z"
       id="path1362"
       inkscape:path-effect="#path-effect1364"
       inkscape:original-d="m 84.824383,70.834922 c -0.124463,0.265305 -0.249187,0.530349 -0.374179,0.795126 0.187357,0.374448 0.374443,0.74862 0.561266,1.122531 0.280903,-0.07769 0.56153,-0.155641 0.841899,-0.23386 0.171767,-0.483057 0.343262,-0.966361 0.514495,-1.449937 -0.264784,-0.233601 -0.52982,-0.467456 -0.795128,-0.701583 -0.24919,0.156176 -0.498637,0.312079 -0.748353,0.467723 z" />
    <path
       style="fill:none;stroke:#000000;stroke-width:0.264583px;stroke-linecap:butt;stroke-linejoin:miter;stroke-opacity:1"
       d="m 92.323607,71.832703 c -0.545588,0.155882 -1.636939,0.467696 -2.478951,1.060207 -0.842013,0.59251 -1.434448,1.465572 -1.746246,2.494672 -0.311798,1.029099 -0.342978,2.213969 -0.109012,3.211811 0.233966,0.997842 0.73286,1.808543 1.403306,2.213745 0.670445,0.405203 1.512328,0.405203 2.510122,0.311639 0.997793,-0.09356 2.151482,-0.280648 2.837341,-0.670331 0.685859,-0.389682 0.904125,-0.982118 0.8731,-1.418602 -0.03102,-0.436485 -0.311651,-0.717111 -0.748197,-0.85756 -0.436547,-0.140449 -1.028984,-0.140449 -1.605845,-0.140449 -0.576862,0 -1.138118,0 -1.621439,-0.218137 -0.483321,-0.218138 -0.888671,-0.65467 -0.935551,-0.997818 -0.04688,-0.343149 0.264927,-0.592595 0.701595,-0.701709 0.436669,-0.109114 0.997924,-0.07793 1.652734,-0.06235 0.654811,0.01558 1.403153,0.01558 1.948682,-0.218258 0.545528,-0.233842 0.888519,-0.701556 0.950945,-1.293875 0.06242,-0.592319 -0.155841,-1.309478 -0.717005,-1.808493 -0.561165,-0.499015 -1.46541,-0.779642 -1.917699,-0.920008 -0.452289,-0.140365 -0.452292,-0.140369 -0.99788,0.01551 z"
       id="path1366"
       inkscape:path-effect="#path-effect1368"
       inkscape:original-d="m 92.869195,71.676821 c -1.091086,0.312078 -2.182437,0.623892 -3.274052,0.935442 -0.592196,0.873363 -1.184629,1.746427 -1.777344,2.619243 -0.03092,1.185182 -0.0621,2.370052 -0.09354,3.554685 0.499179,0.810998 0.998072,1.6217 1.496711,2.43215 0.842179,2.65e-4 1.684062,2.65e-4 2.525696,0 1.154002,-0.186828 2.307691,-0.373912 3.461139,-0.561266 0.218541,-0.592193 0.436806,-1.184629 0.654812,-1.777341 -0.280376,-0.280374 -0.561001,-0.561001 -0.841899,-0.841899 -0.592195,2.65e-4 -1.184632,2.65e-4 -1.777343,0 -0.561012,2.65e-4 -1.122268,2.65e-4 -1.683798,0 -0.405101,-0.436285 -0.810453,-0.872815 -1.216075,-1.309621 0.312084,-0.249193 0.623892,-0.498639 0.935442,-0.748356 0.561541,0.03145 1.122796,0.06263 1.683798,0.09355 0.748633,2.65e-4 1.496975,2.65e-4 2.245063,0 0.343268,-0.467465 0.686258,-0.93518 1.028989,-1.403164 -0.218009,-0.716923 -0.436277,-1.434082 -0.65481,-2.151521 -0.904015,-0.280373 -1.80826,-0.561001 -2.712786,-0.841898 z" />
    <path
       style="fill:none;stroke:#000000;stroke-width:0.264583px;stroke-linecap:butt;stroke-linejoin:miter;stroke-opacity:1"
       d="m 92.947348,73.875233 c -0.420978,-0.04694 -1.044608,0.140144 -1.325262,0.31183 -0.280653,0.171685 -0.218292,0.327587 0.04684,0.436583 0.26513,0.108996 0.732842,0.171357 1.122534,0.140128 0.389692,-0.03123 0.7015,-0.155953 0.748316,-0.358461 0.04682,-0.202508 -0.171449,-0.483135 -0.592427,-0.53008 z"
       id="path1370"
       inkscape:path-effect="#path-effect1372"
       inkscape:original-d="m 93.149828,73.641251 c -0.623363,0.187354 -1.246994,0.374441 -1.870887,0.561266 0.06263,0.156176 0.124989,0.312079 0.187089,0.467723 0.467995,0.06263 0.935707,0.124989 1.403165,0.187086 0.312084,-0.124462 0.623893,-0.249184 0.935442,-0.374176 -0.218008,-0.280374 -0.436274,-0.561001 -0.654809,-0.841899 z" />
    <path
       style="fill:none;stroke:#000000;stroke-width:0.264583px;stroke-linecap:butt;stroke-linejoin:miter;stroke-opacity:1"
       d="m 99.029785,72.87428 c -0.253586,0.782808 -0.760703,2.348256 -1.146553,3.704273 -0.385849,1.356018 -0.650427,2.502524 -0.672368,3.285314 -0.02194,0.782791 0.198541,1.201708 0.507258,1.388949 0.308716,0.187241 0.705585,0.143144 1.190516,-0.562346 0.484931,-0.705491 1.058183,-2.072477 1.609412,-3.152901 0.55123,-1.080425 1.08038,-1.874161 1.58766,-2.260035 0.50728,-0.385873 0.99234,-0.363824 1.1796,0.06624 0.18726,0.430063 0.077,1.267893 -0.0553,2.249066 -0.13229,0.981174 -0.28663,2.105632 -0.11006,2.778074 0.17656,0.672442 0.68367,0.892925 1.14652,0.727503 0.46285,-0.165421 0.88177,-0.716627 1.28967,-1.918213 0.40789,-1.201586 0.80476,-3.053633 0.92609,-4.255231 0.12133,-1.201598 -0.033,-1.752802 -0.55104,-2.127752 -0.51805,-0.374949 -1.39998,-0.573383 -2.08359,-0.540368 -0.68362,0.03301 -1.16868,0.297595 -1.64274,0.573208 -0.47406,0.275613 -0.93707,0.562238 -1.14658,0.496226 -0.20951,-0.06601 -0.16541,-0.484928 -0.22041,-0.793579 -0.055,-0.30865 -0.20934,-0.507083 -0.48496,-0.562373 -0.27563,-0.05529 -0.6725,0.0329 -0.871035,0.07702 -0.198535,0.04412 -0.198535,0.04411 -0.45212,0.826922 z"
       id="path1374"
       inkscape:path-effect="#path-effect1376"
       inkscape:original-d="m 99.28337,72.091473 c -0.506855,1.565717 -1.013971,3.131166 -1.521354,4.696354 -0.264324,1.146815 -0.528902,2.293321 -0.79375,3.439583 0.220755,0.419196 0.441237,0.838113 0.661458,1.256771 0.397147,-0.04383 0.794015,-0.08793 1.190625,-0.132292 0.57354,-1.366776 1.146791,-2.733762 1.719791,-4.101041 0.52944,-0.793501 1.0586,-1.587236 1.5875,-2.38125 0.48534,0.0223 0.9704,0.04436 1.45521,0.06615 -0.10998,0.838128 -0.22022,1.675958 -0.33073,2.513541 -0.15408,1.124765 -0.30842,2.249223 -0.46302,3.373438 0.50739,0.220755 1.0145,0.441237 1.52135,0.661458 0.4192,-0.550963 0.83812,-1.102167 1.25677,-1.653646 0.39715,-1.851855 0.79402,-3.703902 1.19063,-5.55625 -0.15408,-0.550963 -0.30842,-1.102166 -0.46302,-1.653645 -0.8817,-0.198179 -1.76363,-0.396611 -2.64584,-0.595313 -0.48481,0.264853 -0.96987,0.529431 -1.4552,0.79375 -0.46277,0.286901 -0.92578,0.573529 -1.38907,0.859896 0.0444,-0.418669 0.0885,-0.837584 0.1323,-1.256771 -0.15408,-0.198178 -0.30842,-0.39661 -0.46303,-0.595312 -0.39661,0.08846 -0.793481,0.176654 -1.19062,0.264583 z" />
    <path
       style="fill:none;stroke:#000000;stroke-width:0.264583px;stroke-linecap:butt;stroke-linejoin:miter;stroke-opacity:1"
       d="m 112.03807,73.58666 c -0.28834,0.08572 -0.86519,0.25722 -1.41878,0.826362 -0.55359,0.569141 -1.08366,1.535748 -1.38767,2.385522 -0.30401,0.849773 -0.38196,1.58252 -0.25713,2.252969 0.12482,0.670449 0.45222,1.278475 0.91223,1.668131 0.46,0.389656 1.05244,0.561153 1.64479,0.514306 0.59236,-0.04685 1.1848,-0.311887 1.79277,-0.849729 0.60796,-0.537842 1.23158,-1.348538 1.54341,-1.558898 0.31183,-0.21036 0.31183,0.1794 0.31964,0.537998 0.008,0.358598 0.0234,0.685991 0.14044,0.99782 0.11704,0.31183 0.33531,0.608046 0.56919,0.756009 0.23389,0.147964 0.48334,0.147964 0.74824,-0.02352 0.2649,-0.171487 0.54553,-0.514478 0.69365,-0.958704 0.14812,-0.444226 0.16372,-0.989889 0.16373,-3.250579 0,-2.260691 -0.0156,-6.236246 -0.0935,-8.364355 -0.0779,-2.12811 -0.21819,-2.408736 -0.48316,-2.595949 -0.26497,-0.187213 -0.65473,-0.280755 -1.06024,-0.156076 -0.4055,0.124679 -0.82644,0.467668 -1.08371,1.146008 -0.25728,0.67834 -0.35082,1.691713 -0.49894,2.7129 -0.14812,1.021186 -0.3508,2.050152 -0.68594,2.697045 -0.33515,0.646892 -0.80286,0.911929 -1.03676,1.044473 -0.2339,0.132545 -0.23393,0.132545 -0.52228,0.21827 z"
       id="path1378"
       inkscape:path-effect="#path-effect1380"
       inkscape:original-d="m 112.32642,73.500935 c -0.5766,0.171762 -1.15345,0.34326 -1.73057,0.514493 -0.52983,0.966909 -1.05991,1.933514 -1.59026,2.899875 -0.0777,0.733044 -0.15564,1.465792 -0.23386,2.198291 0.32768,0.608317 0.65508,1.216342 0.98222,1.824114 0.59272,0.171768 1.18516,0.343263 1.77734,0.514496 0.59272,-0.264785 1.18516,-0.529821 1.77734,-0.795129 0.62391,-0.810469 1.24752,-1.621168 1.87089,-2.43215 2.6e-4,0.390038 2.6e-4,0.779798 0,1.169302 0.0159,0.327678 0.0314,0.655076 0.0468,0.982215 0.21854,0.296495 0.4368,0.592714 0.65481,0.888672 0.24972,2.65e-4 0.49917,2.65e-4 0.74836,0 0.2809,-0.342739 0.56153,-0.685726 0.84189,-1.028988 0.0159,-0.54542 0.0314,-1.091086 0.0468,-1.637025 -0.0153,-3.975449 -0.0309,-7.951004 -0.0468,-11.926903 -0.14005,-0.280374 -0.28036,-0.561002 -0.42095,-0.841899 -0.38951,-0.09328 -0.77927,-0.186822 -1.1693,-0.280633 -0.42069,0.343268 -0.84163,0.686258 -1.26285,1.028988 -0.0933,1.013683 -0.18682,2.027058 -0.28063,3.04019 -0.20242,1.029274 -0.40509,2.058241 -0.60804,3.086965 -0.46747,0.265311 -0.93518,0.530349 -1.40316,0.795126 z" />
    <path
       style="fill:none;stroke:#000000;stroke-width:0.264583px;stroke-linecap:butt;stroke-linejoin:miter;stroke-opacity:1"
       d="m 112.94229,75.114551 c -0.2728,0.163679 -0.81848,0.491086 -1.13035,0.912174 -0.31187,0.421087 -0.38982,0.935571 -0.37415,1.333186 0.0157,0.397614 0.12481,0.678244 0.33535,0.818401 0.21055,0.140156 0.52236,0.140156 1.03672,-0.28079 0.51436,-0.420945 1.23152,-1.262828 1.57453,-1.862943 0.343,-0.600114 0.31181,-0.958693 0.14821,-1.138131 -0.16359,-0.179438 -0.45981,-0.179438 -0.70153,-0.140489 -0.24172,0.03895 -0.42881,0.116905 -0.52242,0.15591 -0.0936,0.039 -0.0936,0.039 -0.36636,0.202682 z"
       id="path1382"
       inkscape:path-effect="#path-effect1384"
       inkscape:original-d="m 113.21509,74.950873 c -0.54541,0.327668 -1.09109,0.655074 -1.63703,0.982215 -0.0777,0.514768 -0.15564,1.029253 -0.23386,1.543481 0.1094,0.280903 0.21854,0.561531 0.32741,0.841899 0.31208,2.65e-4 0.62389,2.65e-4 0.93544,0 0.71745,-0.84165 1.43461,-1.683533 2.15152,-2.525697 -0.0309,-0.35833 -0.0621,-0.716909 -0.0936,-1.075761 -0.29596,2.65e-4 -0.59218,2.65e-4 -0.88867,0 -0.18682,0.07822 -0.37391,0.156173 -0.56126,0.233863 z" />
    <path
       style="fill:none;stroke:#000000;stroke-width:0.264583px;stroke-linecap:butt;stroke-linejoin:miter;stroke-opacity:1"
       d="m 119.10507,68.144907 c 0.0441,2.072705 0.1323,6.217843 0.23155,8.577067 0.0992,2.359225 0.20948,2.932475 0.45211,3.207923 0.24263,0.275448 0.61745,0.253399 0.80475,-0.352811 0.18729,-0.60621 0.18729,-1.796811 0.17626,-4.067851 -0.011,-2.271039 -0.0331,-5.62236 -0.12125,-7.507495 -0.0881,-1.885136 -0.24248,-2.304052 -0.46291,-2.502656 -0.22043,-0.198604 -0.50705,-0.176555 -0.70564,-0.04419 -0.19859,0.132364 -0.30883,0.374893 -0.36393,0.496102 -0.0551,0.121208 -0.055,0.121208 -0.0109,2.193913 z"
       id="path1386"
       inkscape:path-effect="#path-effect1388"
       inkscape:original-d="m 119.06097,66.072202 c 0.0885,4.145404 0.17666,8.290542 0.26459,12.435417 0.11051,0.57354 0.22075,1.146791 0.33073,1.719791 0.37509,-0.02178 0.74991,-0.04383 1.12448,-0.06615 2.6e-4,-1.190384 2.6e-4,-2.380985 0,-3.571874 -0.0218,-3.351192 -0.0438,-6.702513 -0.0662,-10.054167 -0.15408,-0.418669 -0.30842,-0.837584 -0.46302,-1.256771 -0.28638,0.02231 -0.573,0.04436 -0.8599,0.06615 -0.10998,0.242803 -0.22022,0.485333 -0.33073,0.727604 z" />
    <path
       style="fill:none;stroke:#000000;stroke-width:0.264583px;stroke-linecap:butt;stroke-linejoin:miter;stroke-opacity:1"
       d="m 125.14668,79.12517 c -0.5292,-0.462937 -1.32295,-1.300784 -1.91832,-2.138616 -0.59537,-0.837832 -0.99224,-1.675664 -1.01438,-2.359306 -0.0221,-0.683642 0.33063,-1.212798 0.81588,-1.278872 0.48525,-0.06607 1.1026,0.330794 1.71991,1.036415 0.61731,0.705621 1.23466,1.719839 1.69756,1.918168 0.4629,0.19833 0.77158,-0.419018 1.12438,-0.948235 0.3528,-0.529218 0.74967,-0.970177 1.32306,-1.234784 0.5734,-0.264607 1.32303,-0.352799 1.76391,0.110392 0.44087,0.463191 0.57317,1.477408 0.1542,2.601771 -0.41897,1.124363 -1.38909,2.359059 -2.712,3.770164 -1.32292,1.411105 -2.99858,2.998573 -4.2332,3.836412 -1.23461,0.837839 -2.02835,0.926032 -2.71184,0.70568 -0.68349,-0.220352 -1.25674,-0.749507 -1.52147,-1.234592 -0.26474,-0.485085 -0.22064,-0.926048 0.19844,-1.14665 0.41907,-0.220603 1.2128,-0.220603 1.742,-0.176452 0.52919,0.04415 0.79377,0.132344 1.36693,-0.06618 0.57317,-0.198522 1.45509,-0.683579 2.05033,-1.190636 0.59525,-0.507057 0.90392,-1.036216 0.92615,-1.344884 0.0222,-0.308668 -0.24235,-0.396861 -0.77154,-0.859798 z"
       id="path1390"
       inkscape:path-effect="#path-effect1392"
       inkscape:original-d="m 125.41097,79.499806 c -0.79348,-0.837583 -1.58723,-1.675429 -2.38125,-2.513541 -0.39661,-0.8376 -0.79348,-1.675429 -1.19062,-2.513542 0.35305,-0.528913 0.70582,-1.058069 1.05833,-1.5875 0.61764,0.397147 1.23499,0.794014 1.85209,1.190625 0.61763,1.014521 1.23498,2.028738 1.85208,3.042708 0.30895,-0.617109 0.61762,-1.234458 0.92604,-1.852083 0.39715,-0.440717 0.79401,-0.881679 1.19063,-1.322917 0.74993,-0.08793 1.49956,-0.176125 2.24895,-0.264583 0.13256,1.014521 0.26485,2.028738 0.39688,3.042708 -0.9699,1.235012 -1.94002,2.469708 -2.91042,3.704167 -1.67546,1.587796 -3.35112,3.175264 -5.02708,4.7625 -0.7935,0.08846 -1.58724,0.176654 -2.38125,0.264583 -0.57301,-0.528913 -1.14626,-1.058069 -1.71979,-1.5875 0.0444,-0.440716 0.0885,-0.881679 0.13229,-1.322917 0.79403,2.65e-4 1.58776,2.65e-4 2.38125,0 0.26485,0.08846 0.52943,0.176655 0.79375,0.264584 0.88223,-0.484815 1.76415,-0.969875 2.64583,-1.455209 0.30895,-0.528912 0.61763,-1.058068 0.92604,-1.5875 -0.26432,-0.08793 -0.5289,-0.176125 -0.79375,-0.264583 z" />
    <path
       style="fill:none;stroke:#000000;stroke-width:0.264583px;stroke-linecap:butt;stroke-linejoin:miter;stroke-opacity:1"
       d="m 141.21603,76.26049 c -0.48331,0.467719 -1.44994,1.403164 -1.90206,2.245213 -0.45212,0.842049 -0.38976,1.590391 0.0469,2.323145 0.43667,0.732753 1.24737,1.449912 1.99571,1.761586 0.74833,0.311674 1.43431,0.218132 1.99545,-0.156005 0.56114,-0.374137 0.99767,-1.028935 1.29398,-1.169119 0.29631,-0.140183 0.45222,0.233985 0.5457,0.686103 0.0935,0.452119 0.12464,0.982189 0.37423,1.309497 0.2496,0.327308 0.71731,0.452031 1.13811,0.342845 0.42081,-0.109186 0.79498,-0.452176 0.81058,-1.746073 0.0156,-1.293898 -0.32739,-3.538914 -0.49891,-6.470024 -0.17152,-2.93111 -0.17152,-6.548084 -0.31171,-8.496926 -0.14018,-1.948843 -0.42081,-2.229472 -0.81074,-1.980113 -0.38992,0.249359 -0.88881,1.028885 -1.18502,2.135929 -0.29621,1.107045 -0.38976,2.541361 -0.40534,3.928964 -0.0156,1.387603 0.0468,2.728378 -1e-5,3.523404 -0.0468,0.795026 -0.20271,1.044475 -0.48319,1.169165 -0.28048,0.12469 -0.68583,0.12469 -1.06001,0.12469 -0.37418,0 -0.71717,0 -0.8888,0 -0.17163,0 -0.17158,0 -0.65489,0.467719 z"
       id="path1394"
       inkscape:path-effect="#path-effect1396"
       inkscape:original-d="m 141.69934,75.792771 c -0.96636,0.935707 -1.93299,1.871152 -2.89988,2.80633 0.0626,0.748633 0.12499,1.496973 0.18709,2.245064 0.811,0.717452 1.6217,1.43461 2.43215,2.15152 0.68627,-0.09328 1.37225,-0.186825 2.05798,-0.280633 0.43681,-0.654558 0.87334,-1.309357 1.30962,-1.964431 0.15618,0.374449 0.31208,0.748618 0.46772,1.122532 0.0315,0.53036 0.0626,1.060434 0.0935,1.590254 0.46799,0.124992 0.9357,0.249717 1.40316,0.374177 0.37445,-0.342739 0.74862,-0.685729 1.12253,-1.028989 -0.34274,-2.244844 -0.68572,-4.489862 -1.02899,-6.735191 2.7e-4,-3.616856 2.7e-4,-7.23383 0,-10.851141 -0.28037,-0.280377 -0.561,-0.561004 -0.8419,-0.841902 -0.49864,0.779817 -0.99754,1.559338 -1.4967,2.33861 -0.0933,1.434639 -0.18683,2.868956 -0.28064,4.30304 0.0626,1.341094 0.12499,2.681867 0.18709,4.022405 -0.15564,0.249722 -0.31155,0.499168 -0.46772,0.748355 -0.4051,2.65e-4 -0.81045,2.65e-4 -1.21608,0 -0.34273,2.65e-4 -0.68572,2.65e-4 -1.02898,0 z" />
    <path
       style="fill:none;stroke:#000000;stroke-width:0.264583px;stroke-linecap:butt;stroke-linejoin:miter;stroke-opacity:1"
       d="m 142.85324,77.772817 c -0.20278,0.09347 -0.56137,0.296151 -0.7953,0.608087 -0.23393,0.311936 -0.34306,0.732873 -0.25713,1.029104 0.0859,0.29623 0.36656,0.467722 0.67828,0.475393 0.31172,0.0077 0.65471,-0.148232 0.94307,-0.389839 0.28835,-0.241607 0.52221,-0.569008 0.59242,-0.919673 0.0702,-0.350666 -0.0233,-0.724832 -0.19478,-0.873125 -0.17146,-0.148293 -0.42091,-0.07034 -0.56894,-0.03908 -0.14804,0.03126 -0.19484,0.01566 -0.39762,0.109132 z"
       id="path1398"
       inkscape:path-effect="#path-effect1400"
       inkscape:original-d="m 143.00896,77.663659 c -0.35832,0.202943 -0.71691,0.405622 -1.07576,0.608036 -0.10888,0.421225 -0.21801,0.842163 -0.32741,1.262848 0.28091,0.171768 0.56153,0.343263 0.8419,0.514496 0.34327,-0.155647 0.68626,-0.31155 1.02899,-0.467723 0.23413,-0.327146 0.46799,-0.654544 0.70158,-0.982215 -0.0933,-0.37392 -0.18682,-0.748091 -0.28063,-1.122532 -0.24919,0.07822 -0.49864,0.15617 -0.74836,0.23386 -0.0465,-0.01532 -0.0933,-0.03092 -0.14031,-0.04677 z" />
    <path
       style="fill:none;stroke:#000000;stroke-width:0.264583px;stroke-linecap:butt;stroke-linejoin:miter;stroke-opacity:1"
       d="m 149.55706,76.167081 c 0,0.935576 0,2.806461 -0.0312,4.396722 -0.0312,1.590261 -0.0935,2.899856 0.0937,3.694957 0.18725,0.795101 0.62379,1.075732 1.07581,1.075605 0.45202,-1.27e-4 0.91973,-0.280752 1.15356,-0.966599 0.23382,-0.685847 0.23382,-1.777177 0.23382,-2.728219 0,-0.951042 0,-1.761741 0.21826,-2.432265 0.21826,-0.670524 0.65479,-1.200598 1.32534,-1.496846 0.67054,-0.296248 1.57479,-0.35861 2.26079,-0.140189 0.686,0.218421 1.15371,0.717312 1.82407,0.826283 0.67037,0.108971 1.54343,-0.171656 1.96431,-0.592448 0.42089,-0.420791 0.38972,-0.982046 0.0313,-1.434241 -0.35844,-0.452194 -1.04441,-0.79518 -2.02668,-0.904405 -0.98227,-0.109225 -2.26068,0.0155 -3.27414,0.233754 -1.01345,0.218257 -1.76179,0.530066 -2.22954,0.374338 -0.46774,-0.155727 -0.65483,-0.779343 -1.04456,-0.997796 -0.38974,-0.218453 -0.98218,-0.03137 -1.27848,0.0622 -0.29631,0.09357 -0.29635,0.09357 -0.29635,1.029145 z"
       id="path1402"
       inkscape:path-effect="#path-effect1404"
       inkscape:original-d="m 149.55706,75.231506 c 2.6e-4,1.871151 2.6e-4,3.742036 0,5.612659 -0.0621,1.309912 -0.12446,2.619507 -0.18709,3.928861 0.43681,0.280903 0.87335,0.56153 1.30962,0.841899 0.468,-0.280374 0.93571,-0.561001 1.40317,-0.841899 2.6e-4,-1.091107 2.6e-4,-2.182437 0,-3.274052 2.6e-4,-0.810469 2.6e-4,-1.621168 0,-2.432151 0.43681,-0.52983 0.87334,-1.059904 1.30962,-1.590254 0.90454,-0.0621 1.80879,-0.124462 2.71278,-0.187089 0.468,0.499178 0.93571,0.998071 1.40317,1.496711 0.87336,-0.280374 1.74642,-0.561002 2.61924,-0.841899 -0.0309,-0.561015 -0.0621,-1.122268 -0.0935,-1.683798 -0.68575,-0.342739 -1.37172,-0.685729 -2.05798,-1.028988 -1.2782,0.124991 -2.55661,0.249716 -3.83532,0.374176 -0.7481,0.312087 -1.49644,0.623893 -2.24506,0.935445 -0.18683,-0.623377 -0.37391,-1.246995 -0.56127,-1.870887 -0.59219,0.187356 -1.18463,0.374441 -1.77734,0.561266 z" />
    <path
       style="fill:none;stroke:#000000;stroke-width:0.264583px;stroke-linecap:butt;stroke-linejoin:miter;stroke-opacity:1"
       d="m 161.64786,76.115475 c -0.011,0.981295 -0.0331,2.943619 -0.0882,4.564196 -0.0551,1.620577 -0.14333,2.899374 -0.055,3.704173 0.0883,0.804799 0.3529,1.135522 0.68358,1.212519 0.33068,0.077 0.72755,-0.09939 1.09127,-0.981222 0.36372,-0.881831 0.69444,-2.469301 0.76062,-4.023698 0.0662,-1.554396 -0.13224,-3.075718 -0.38572,-4.056881 -0.25347,-0.981163 -0.56215,-1.422129 -0.90395,-1.565621 -0.34179,-0.143492 -0.71661,0.01085 -0.90409,0.08804 -0.18748,0.0772 -0.18743,0.0772 -0.19846,1.058491 z"
       id="path1406"
       inkscape:path-effect="#path-effect1408"
       inkscape:original-d="m 161.65889,75.134181 c -0.0218,1.962592 -0.0438,3.924917 -0.0662,5.886979 -0.0879,1.27911 -0.17612,2.557905 -0.26458,3.836459 0.26485,0.330999 0.52943,0.661722 0.79375,0.992187 0.39715,-0.176128 0.79402,-0.352512 1.19063,-0.529167 0.33099,-1.587267 0.66172,-3.174735 0.99218,-4.7625 -0.19818,-1.521121 -0.39661,-3.042443 -0.59531,-4.564062 -0.30842,-0.440716 -0.6171,-0.881679 -0.92604,-1.322917 -0.37457,0.154607 -0.74939,0.308946 -1.12448,0.463021 z" />
    <path
       style="fill:none;stroke:#000000;stroke-width:0.264583px;stroke-linecap:butt;stroke-linejoin:miter;stroke-opacity:1"
       d="m 162.25423,69.588938 c -0.19842,0.143297 -0.5953,0.429931 -0.80478,0.871054 -0.20948,0.441122 -0.23152,1.036423 -0.0219,1.521488 0.20962,0.485064 0.65059,0.859886 1.14659,0.892811 0.496,0.03292 1.0472,-0.275749 1.25665,-0.760648 0.20945,-0.4849 0.0772,-1.146345 -0.20935,-1.620446 -0.28652,-0.474101 -0.72749,-0.76073 -0.94812,-0.904143 -0.22064,-0.143414 -0.22068,-0.143414 -0.41909,-1.16e-4 z"
       id="path1410"
       inkscape:path-effect="#path-effect1412"
       inkscape:original-d="m 162.45264,69.44564 c -0.39661,0.286895 -0.79349,0.573529 -1.19063,0.859895 -0.0218,0.595588 -0.0438,1.19089 -0.0661,1.785938 0.44124,0.375097 0.88221,0.749916 1.32292,1.124479 0.55149,-0.308422 1.10269,-0.617096 1.65364,-0.926042 -0.13203,-0.661207 -0.26432,-1.322652 -0.39687,-1.984375 -0.44072,-0.286374 -0.88169,-0.573 -1.32292,-0.859895 z" />
    <path
       style="fill:none;stroke:#000000;stroke-width:0.264583px;stroke-linecap:butt;stroke-linejoin:miter;stroke-opacity:1"
       d="m 167.09669,76.743966 c 0.42102,0.951194 1.26292,2.853263 1.93336,4.194066 0.67043,1.340803 1.16932,2.120323 1.66829,2.57234 0.49897,0.452018 0.99786,0.57674 1.57458,0.358416 0.57672,-0.218325 1.23151,-0.779576 2.18252,-2.120351 0.95101,-1.340775 2.19825,-3.461071 2.72842,-4.739394 0.53018,-1.278323 0.34309,-1.714857 -0.0154,-1.933287 -0.35853,-0.21843 -0.88861,-0.21843 -1.60594,0.32727 -0.71732,0.5457 -1.62156,1.637026 -2.19844,2.478985 -0.57687,0.84196 -0.82632,1.434394 -1.13795,1.637085 -0.31164,0.202692 -0.68581,0.01561 -1.06008,-0.545588 -0.37428,-0.561195 -0.74845,-1.49662 -1.23168,-2.213836 -0.48324,-0.717217 -1.07568,-1.216113 -1.65256,-1.450101 -0.57688,-0.233988 -1.13814,-0.202809 -1.40329,-0.07792 -0.26515,0.124888 -0.23398,0.343144 -0.21842,0.452131 0.0156,0.108987 0.0156,0.10899 0.43662,1.060185 z"
       id="path1414"
       inkscape:path-effect="#path-effect1416"
       inkscape:original-d="m 166.67567,75.792771 c 0.84217,1.902333 1.68407,3.804402 2.5257,5.706203 0.49918,0.779817 0.99807,1.559338 1.49671,2.33861 0.49918,0.124992 0.99807,0.249716 1.49671,0.374176 0.65509,-0.561012 1.30988,-1.122267 1.96443,-1.683798 1.24755,-2.120114 2.49478,-4.240411 3.74177,-6.361014 -0.18682,-0.436285 -0.37391,-0.872816 -0.56126,-1.309622 -0.52983,2.65e-4 -1.05991,2.65e-4 -1.59026,0 -0.90401,1.09164 -1.80825,2.182966 -2.71278,3.274053 -0.2492,0.592724 -0.49864,1.185161 -0.74836,1.777343 -0.37392,-0.186827 -0.74809,-0.373914 -1.12253,-0.561266 -0.37392,-0.935198 -0.74809,-1.870622 -1.12253,-2.806329 -0.59219,-0.49865 -1.18463,-0.997543 -1.77734,-1.496711 -0.56101,0.03145 -1.12227,0.06263 -1.6838,0.09354 0.0315,0.218541 0.0626,0.436806 0.0935,0.654812 z" />
    <path
       style="fill:none;stroke:#000000;stroke-width:0.264583px;stroke-linecap:butt;stroke-linejoin:miter;stroke-opacity:1"
       d="m 186.61816,74.472707 c -0.88193,0.04411 -2.20485,0.0882 -3.1751,0.352781 -0.97026,0.264579 -1.58761,0.749641 -2.07272,1.697851 -0.48511,0.94821 -0.83789,2.359295 -0.97014,3.505883 -0.13225,1.146588 -0.0441,2.028511 0.30881,2.976621 0.35286,0.94811 0.97021,1.962328 1.8963,2.491345 0.9261,0.529018 2.1608,0.573114 3.30733,0.573103 1.14653,-1e-5 2.20484,-0.04411 2.9764,-0.418906 0.77156,-0.3748 1.25662,-1.080343 1.25677,-1.631471 1.6e-4,-0.551129 -0.4849,-0.947998 -1.01408,-1.146553 -0.52918,-0.198555 -1.10244,-0.198555 -1.74183,-0.286712 -0.63939,-0.08816 -1.34493,-0.264543 -1.83002,-0.462904 -0.48509,-0.19836 -0.74966,-0.418839 -0.77185,-0.639445 -0.0222,-0.220607 0.19829,-0.441087 0.81579,-0.551332 0.61751,-0.110245 1.63172,-0.110245 2.62383,-0.37486 0.99212,-0.264615 1.96224,-0.793771 2.44726,-1.543275 0.48502,-0.749504 0.48502,-1.719622 0.0221,-2.535452 -0.46288,-0.81583 -1.3889,-1.477279 -2.07245,-1.786077 -0.68354,-0.308798 -1.12451,-0.264701 -2.00644,-0.220597 z"
       id="path1418"
       inkscape:path-effect="#path-effect1420"
       inkscape:original-d="m 187.05889,74.472723 c -1.32265,0.04436 -2.64557,0.08846 -3.96875,0.132292 -0.61711,0.485343 -1.23446,0.970404 -1.85208,1.455208 -0.35252,1.411404 -0.7053,2.822488 -1.05834,4.233333 0.0885,0.882227 0.17665,1.764154 0.26459,2.645833 0.61763,1.014521 1.23498,2.028738 1.85208,3.042709 1.23501,0.04436 2.46971,0.08846 3.70417,0.132291 1.05862,-0.04383 2.11693,-0.08793 3.175,-0.132291 0.48534,-0.705305 0.9704,-1.410846 1.4552,-2.116667 -0.48481,-0.396618 -0.96987,-0.793485 -1.4552,-1.190625 -0.57301,2.65e-4 -1.14627,2.65e-4 -1.7198,0 -0.7053,-0.176128 -1.41084,-0.352512 -2.11666,-0.529167 -0.26433,-0.220225 -0.5289,-0.440708 -0.79375,-0.661458 0.22075,-0.220226 0.44123,-0.440708 0.66146,-0.661458 1.01452,2.64e-4 2.02873,2.64e-4 3.0427,0 0.97043,-0.528913 1.94055,-1.058069 2.91042,-1.5875 2.7e-4,-0.969894 2.7e-4,-1.940012 0,-2.910417 -0.92579,-0.661207 -1.85182,-1.322652 -2.77812,-1.984375 -0.44072,0.04436 -0.88169,0.08846 -1.32292,0.132292 z" />
    <path
       style="fill:none;stroke:#000000;stroke-width:0.264583px;stroke-linecap:butt;stroke-linejoin:miter;stroke-opacity:1"
       d="m 186.84417,76.495741 c -0.5568,-0.03869 -1.19621,0.126675 -1.57666,0.474067 -0.38045,0.347391 -0.50172,0.876546 -0.38579,1.267923 0.11593,0.391376 0.4687,0.644926 1.03087,0.633766 0.56218,-0.01116 1.33387,-0.286764 1.77474,-0.639425 0.44087,-0.352662 0.55111,-0.782602 0.36939,-1.118857 -0.18173,-0.336256 -0.65576,-0.578784 -1.21255,-0.617474 z"
       id="path1422"
       inkscape:path-effect="#path-effect1424"
       inkscape:original-d="m 186.9266,76.291733 c -0.63915,0.165629 -1.27856,0.330994 -1.91823,0.496094 -0.12101,0.529442 -0.24227,1.058598 -0.3638,1.5875 0.35305,0.253828 0.70581,0.507384 1.05833,0.760677 0.77198,-0.275349 1.54367,-0.55095 2.3151,-0.826823 0.11051,-0.429691 0.22075,-0.859631 0.33073,-1.289844 -0.47379,-0.242276 -0.94782,-0.484804 -1.42213,-0.727604 z" />
  </g>
</svg>
