<?xml version="1.0" encoding="UTF-8" standalone="no"?>
<!-- Created with Inkscape (http://www.inkscape.org/) -->

<svg
   width="207.27354mm"
   height="56.821053mm"
   viewBox="0 0 207.27354 56.821053"
   version="1.1"
   id="svg5"
   inkscape:version="1.1.2 (b8e25be833, 2022-02-05)"
   sodipodi:docname="HamsterLogo.svg"
   xmlns:inkscape="http://www.inkscape.org/namespaces/inkscape"
   xmlns:sodipodi="http://sodipodi.sourceforge.net/DTD/sodipodi-0.dtd"
   xmlns="http://www.w3.org/2000/svg"
   xmlns:svg="http://www.w3.org/2000/svg">
  <sodipodi:namedview
     id="namedview7"
     pagecolor="#ffffff"
     bordercolor="#666666"
     borderopacity="1.0"
     inkscape:pageshadow="2"
     inkscape:pageopacity="0.0"
     inkscape:pagecheckerboard="0"
     inkscape:document-units="mm"
     showgrid="false"
     inkscape:zoom="0.5"
     inkscape:cx="424"
     inkscape:cy="218"
     inkscape:window-width="1920"
     inkscape:window-height="1017"
     inkscape:window-x="-8"
     inkscape:window-y="-8"
     inkscape:window-maximized="1"
     inkscape:current-layer="layer1" />
  <defs
     id="defs2">
    <inkscape:path-effect
       effect="bspline"
       id="path-effect1195"
       is_visible="true"
       lpeversion="1"
       weight="33.333333"
       steps="2"
       helper_size="0"
       apply_no_weight="true"
       apply_with_weight="true"
       only_selected="false" />
    <inkscape:path-effect
       effect="bspline"
       id="path-effect1077"
       is_visible="true"
       lpeversion="1"
       weight="33.333333"
       steps="2"
       helper_size="0"
       apply_no_weight="true"
       apply_with_weight="true"
       only_selected="false" />
    <inkscape:path-effect
       effect="bspline"
       id="path-effect1073"
       is_visible="true"
       lpeversion="1"
       weight="33.333333"
       steps="2"
       helper_size="0"
       apply_no_weight="true"
       apply_with_weight="true"
       only_selected="false" />
    <inkscape:path-effect
       effect="bspline"
       id="path-effect1069"
       is_visible="true"
       lpeversion="1"
       weight="33.333333"
       steps="2"
       helper_size="0"
       apply_no_weight="true"
       apply_with_weight="true"
       only_selected="false" />
    <inkscape:path-effect
       effect="bspline"
       id="path-effect1065"
       is_visible="true"
       lpeversion="1"
       weight="33.333333"
       steps="2"
       helper_size="0"
       apply_no_weight="true"
       apply_with_weight="true"
       only_selected="false" />
    <inkscape:path-effect
       effect="bspline"
       id="path-effect1061"
       is_visible="true"
       lpeversion="1"
       weight="33.333333"
       steps="2"
       helper_size="0"
       apply_no_weight="true"
       apply_with_weight="true"
       only_selected="false" />
    <inkscape:path-effect
       effect="bspline"
       id="path-effect943"
       is_visible="true"
       lpeversion="1"
       weight="33.333333"
       steps="2"
       helper_size="0"
       apply_no_weight="true"
       apply_with_weight="true"
       only_selected="false" />
    <inkscape:path-effect
       effect="bspline"
       id="path-effect939"
       is_visible="true"
       lpeversion="1"
       weight="33.333333"
       steps="2"
       helper_size="0"
       apply_no_weight="true"
       apply_with_weight="true"
       only_selected="false" />
    <inkscape:path-effect
       effect="bspline"
       id="path-effect935"
       is_visible="true"
       lpeversion="1"
       weight="33.333333"
       steps="2"
       helper_size="0"
       apply_no_weight="true"
       apply_with_weight="true"
       only_selected="false" />
  </defs>
  <g
     inkscape:label="Warstwa 1"
     inkscape:groupmode="layer"
     id="layer1"
     transform="translate(-1.8505585,-1.0508488)">
    <path
       style="fill:none;stroke:#000000;stroke-width:0.847464px;stroke-linecap:butt;stroke-linejoin:miter;stroke-opacity:1"
       d="M 9.1120887,7.5366507 C 8.0000194,7.9602961 5.7754251,8.8077604 4.4333126,10.556111 c -1.3421124,1.74835 -1.801147,4.396626 -1.8893278,7.539457 -0.088181,3.142831 0.1943014,6.779794 0.1236069,11.070066 -0.070695,4.290273 -0.4944187,9.233722 -0.3707176,13.912572 0.1237012,4.67885 0.7945955,9.092627 2.4723192,11.617021 1.6777237,2.524395 4.3613127,3.159979 6.3381817,2.524339 1.976869,-0.635639 3.248038,-2.542396 3.989621,-5.896687 0.741583,-3.35429 0.953445,-8.156494 1.447752,-11.19354 0.494306,-3.037046 1.271133,-4.308219 2.895833,-5.261819 1.6247,-0.953601 4.096423,-1.589186 5.897507,-1.588821 1.801084,3.65e-4 2.931018,0.635952 3.601439,4.202585 0.670422,3.566634 0.882284,10.063733 1.377053,13.700764 0.49477,3.637031 1.271599,4.413857 2.648608,4.519278 1.377008,0.105421 3.354384,-0.459547 4.625232,-1.871626 1.270847,-1.412079 1.835814,-3.671938 2.047758,-11.687556 C 39.850123,34.126527 39.708881,20.3555 39.28548,12.975536 38.862079,5.5955724 38.155875,4.6068855 36.672883,4.0767492 35.18989,3.5466128 32.930029,3.4759878 31.375857,3.9703876 29.821685,4.4647873 28.974235,5.5240997 28.44459,8.3493778 27.914945,11.174656 27.703083,15.765002 27.13806,18.695506 c -0.565023,2.930504 -1.483092,4.201676 -2.859797,4.907791 -1.376704,0.706114 -3.212837,0.847354 -4.55482,4.12e-4 -1.341983,-0.846942 -2.189429,-2.683078 -2.966435,-5.7199 C 15.980002,14.846987 15.273795,10.609747 14.197056,8.6141369 13.120318,6.6185268 11.67259,6.8656996 10.948374,6.989346 10.224158,7.1129925 10.224158,7.1130053 9.1120887,7.5366507 Z"
       id="path933"
       inkscape:path-effect="#path-effect935"
       inkscape:original-d="M 10.224158,7.1130053 C 8.0004087,7.961318 5.7758142,8.8087818 3.5503708,9.6554 c -0.4582076,2.649228 -0.9172383,5.297505 -1.3771307,7.944984 0.2833389,3.637955 0.5658258,7.274917 0.8474638,10.911109 -0.4228911,4.944492 -0.846615,9.887942 -1.2711973,14.830639 0.6717687,4.414818 1.3426662,8.828594 2.012731,13.241647 2.6845382,0.636439 5.3681218,1.272046 8.0509144,1.906788 1.272072,-1.905987 2.543243,-3.812743 3.813592,-5.720396 0.212712,-4.801543 0.424582,-9.603747 0.6356,-14.406898 0.777702,-1.270374 1.55453,-2.541546 2.330528,-3.813592 2.472665,-0.634767 4.944389,-1.270349 7.415318,-1.906794 1.130825,0.636455 2.260757,1.272046 3.389859,1.906794 0.212713,6.49821 0.424583,12.995309 0.635601,19.491703 0.777702,0.777693 1.554529,1.554521 2.330528,2.330515 1.978305,-0.564147 3.955687,-1.129095 5.932253,-1.69494 0.565835,-2.259088 1.130799,-4.518948 1.694931,-6.779704 C 39.850973,34.126518 39.70972,20.355491 39.567628,6.5833416 38.86224,5.5954575 38.156033,4.6067727 37.448967,3.6172134 35.189863,3.5474838 32.930003,3.4768252 30.669247,3.4053339 29.822612,4.4655293 28.975165,5.5248438 28.126852,6.5833288 27.915837,11.174697 27.703966,15.765043 27.491254,20.354633 c -0.917261,1.272068 -1.835329,2.54324 -2.754262,3.813592 -1.835364,0.142086 -3.671496,0.283339 -5.508523,0.42373 C 18.381835,22.756594 17.534387,20.920459 16.686078,19.083436 15.98069,14.846872 15.274479,10.609633 14.567413,6.3714621 13.120479,6.6194717 11.672754,6.8666613 10.224158,7.1129925 Z" />
    <path
       id="path937"
       style="fill:none;stroke:#000000;stroke-width:0.847464px;stroke-linecap:butt;stroke-linejoin:miter;stroke-opacity:1"
       d="m 58.074474,20.506926 c -0.148588,0.0019 -0.298745,0.0053 -0.448563,0.01159 -2.397208,0.09969 -4.943248,0.749286 -7.415317,1.723065 -2.472067,0.97378 -4.869333,2.272172 -6.067978,2.921441 -1.198653,0.649268 -1.198832,0.648708 -1.398646,0.948431 -0.199804,0.299722 -0.599675,0.899389 -0.574361,1.598929 0.0253,0.699532 0.475869,1.497361 1.175196,1.971348 0.699328,0.473987 1.647911,0.62391 3.270687,0.374078 1.62277,-0.249835 3.919731,-0.898676 5.617762,-1.223196 1.698041,-0.324519 2.79559,-0.32385 3.669591,-0.173799 0.873997,0.150045 1.523294,0.448894 1.822379,0.948432 0.299097,0.499529 0.249963,1.198392 -0.04965,1.847212 -0.29961,0.648819 -0.848313,1.248164 -2.196459,2.121966 -1.348137,0.873812 -3.495699,2.02367 -5.243688,3.297173 -1.747989,1.273504 -3.096969,2.671505 -4.245606,4.119807 -1.148627,1.448292 -2.097838,2.946474 -2.572182,4.320079 -0.474342,1.373604 -0.473352,2.62147 -0.223443,3.845042 0.2499,1.223569 0.748238,2.422106 1.572448,3.520622 0.8242,1.098519 1.973068,2.096941 3.421309,2.770811 1.448231,0.67387 3.195493,1.023085 4.818295,1.022916 1.622802,-1.7e-4 3.122384,-0.349638 4.245605,-1.198364 1.123212,-0.848729 1.871007,-2.195784 2.345425,-3.219375 0.474412,-1.023594 0.674751,-1.723777 0.999739,-2.123629 0.324984,-0.399852 0.773685,-0.499725 0.998092,-0.02498 0.224403,0.474902 0.225108,1.523554 0.475039,2.54736 0.249932,1.023812 0.748651,2.022551 1.847209,2.146806 1.098561,0.124245 2.796746,-0.625258 3.820213,-1.948177 1.023472,-1.322927 1.373594,-3.220384 1.398645,-7.464981 0.02498,-4.244586 -0.275363,-10.835175 -1.099051,-15.204705 -0.823691,-4.369393 -2.17162,-6.516946 -3.969195,-7.815736 -1.685232,-1.217612 -3.7648,-1.688184 -5.993498,-1.660167 z m 2.234527,18.659126 c 0.800879,-0.0038 1.518919,0.24077 1.911763,0.667047 0.44896,0.487182 0.473944,1.210077 -0.200285,2.57053 -0.674226,1.360453 -2.048035,3.358632 -3.308758,4.669329 -1.260714,1.310707 -2.408935,1.93517 -3.532201,2.160044 -1.123272,0.224884 -2.222458,0.04875 -3.03399,-0.288015 -0.811542,-0.336739 -1.336437,-0.83509 -1.574097,-1.559209 -0.237664,-0.724106 -0.187345,-1.672843 0.436968,-2.572183 0.624319,-0.899337 1.822811,-1.748505 2.92144,-2.52253 1.098619,-0.774031 2.098011,-1.47242 3.096881,-2.034245 0.998884,-0.561835 1.998046,-0.987068 2.934678,-1.074231 0.117103,-0.01089 0.23318,-0.01602 0.347598,-0.01666 z" />
    <path
       style="fill:none;stroke:#000000;stroke-width:0.847464px;stroke-linecap:butt;stroke-linejoin:miter;stroke-opacity:1"
       d="m 72.14208,29.059259 c 0.158919,3.725757 0.476717,11.176379 0.635598,15.74916 0.158881,4.572781 0.158881,6.267676 0.441712,7.521285 0.282832,1.25361 0.847804,2.065761 1.589412,2.453663 0.741607,0.387903 1.659677,0.352564 2.542171,0.06999 0.882495,-0.282569 1.729938,-0.812228 2.294725,-1.606376 0.564787,-0.794149 0.847269,-1.853455 0.98859,-3.601243 0.141322,-1.747787 0.141322,-4.1842 0.17662,-6.320552 0.0353,-2.136351 0.105924,-3.972488 0.335395,-5.70285 0.229471,-1.730361 0.617883,-3.354632 1.147667,-4.449618 0.529783,-1.094986 1.200676,-1.659949 2.189635,-2.136702 0.988959,-0.476753 2.295438,-0.865166 3.248946,-0.688058 0.953508,0.177108 1.553784,0.918625 1.924197,2.70184 0.370414,1.783215 0.511654,4.608046 0.635233,8.050901 0.123579,3.442854 0.229512,7.503542 0.459303,9.851796 0.22979,2.348254 0.582903,2.983855 1.112797,3.389555 0.529894,0.4057 1.236095,0.582256 1.942,0.493764 0.705904,-0.08849 1.412096,-0.441588 1.994479,-1.12989 0.582382,-0.688303 1.041417,-1.712305 1.235718,-4.13091 0.194302,-2.418606 0.123677,-6.232121 -0.08814,-9.374788 -0.211813,-3.142666 -0.564915,-5.614382 -0.441398,-7.168539 0.123516,-1.554158 0.72379,-2.189742 1.465811,-2.454528 0.742022,-0.264785 1.624772,-0.158854 2.224655,1.16575 0.59988,1.324603 0.91768,3.866945 1.18247,7.415724 0.2648,3.54878 0.47666,8.103809 0.83,10.893455 0.35334,2.789646 0.84769,3.813652 1.60712,4.39584 0.75944,0.582188 1.78344,0.723428 2.5774,0.387982 0.79396,-0.335446 1.35891,-1.147574 1.69442,-2.983455 0.3355,-1.835882 0.44144,-4.696015 0.0884,-8.491925 -0.35302,-3.795911 -1.16516,-8.527494 -1.92416,-11.528921 -0.75899,-3.001427 -1.4652,-4.272605 -2.41838,-5.15568 -0.95318,-0.883074 -2.15373,-1.377414 -3.30143,-1.624803 -1.147711,-0.247389 -2.242329,-0.247389 -3.160768,0.01739 -0.91844,0.264781 -1.659956,0.794436 -2.278012,1.341851 -0.618055,0.547415 -1.112397,1.112378 -1.588769,1.024557 -0.476372,-0.08782 -0.935404,-0.829334 -1.659091,-1.465163 -0.723687,-0.635828 -1.712376,-1.165482 -2.948354,-1.44823 -1.235977,-0.282748 -2.719004,-0.318055 -4.113905,-0.212191 -1.3949,0.105863 -2.701379,0.353035 -3.778558,0.706132 -1.077179,0.353096 -1.924625,0.81213 -3.389728,0.882904 -1.465102,0.07077 -3.548413,-0.24702 -4.590565,-0.405993 -1.042152,-0.158972 -1.042158,-0.158888 -0.88324,3.566869 z"
       id="path1059"
       inkscape:path-effect="#path-effect1061"
       inkscape:original-d="m 71.983162,25.333502 c 0.318636,7.45148 0.636446,14.902101 0.953397,22.351886 8.49e-4,1.695812 8.49e-4,3.390707 0,5.084783 0.565836,0.813022 1.1308,1.625179 1.694931,2.436471 0.918949,-0.03459 1.837023,-0.06983 2.754262,-0.10602 0.848328,-0.52885 1.695776,-1.058501 2.542394,-1.589017 0.283339,-1.058501 0.565826,-2.117806 0.847464,-3.177985 8.46e-4,-2.435664 8.46e-4,-4.872077 0,-7.309384 0.07143,-1.835364 0.142086,-3.6715 0.21188,-5.508523 0.389272,-1.623497 0.777692,-3.247766 1.165264,-4.872923 0.671768,-0.56414 1.342663,-1.129101 2.012727,-1.69493 1.307385,-0.387578 2.613861,-0.775998 3.919526,-1.165264 0.601148,0.742398 1.201426,1.483913 1.800864,2.224594 0.142086,2.825788 0.283339,5.650619 0.42373,8.474651 0.106789,4.061695 0.212713,8.122384 0.317804,12.18231 0.353962,0.63644 0.707066,1.272046 1.05933,1.906788 0.707082,0.177447 1.413293,0.353965 2.118665,0.529683 0.707082,-0.3523 1.413289,-0.705368 2.118661,-1.059334 0.459902,-1.023204 0.918933,-2.047208 1.377131,-3.072071 -0.06973,-3.81282 -0.140389,-7.626335 -0.21188,-11.440773 -0.352274,-2.47098 -0.705372,-4.942697 -1.059331,-7.41532 0.601149,-0.634768 1.201426,-1.270349 1.800861,-1.906795 0.883646,0.106789 1.766397,0.212713 2.648328,0.317804 0.31867,2.543291 0.63645,5.085634 0.9534,7.627184 0.21271,4.556064 0.42458,9.111093 0.6356,13.66537 0.49521,1.024879 0.98956,2.048884 1.48306,3.072055 1.02489,0.142214 2.04889,0.283467 3.07206,0.423728 0.56584,-0.811325 1.1308,-1.62345 1.69493,-2.436471 0.10679,-2.859388 0.21271,-5.719522 0.3178,-8.580562 -0.81132,-4.73093 -1.62346,-9.462513 -2.43646,-14.195038 -0.70538,-1.270375 -1.4116,-2.541547 -2.11866,-3.813593 -1.19976,-0.493521 -2.4003,-0.987865 -3.60173,-1.483064 -1.093811,8.49e-4 -2.188429,8.49e-4 -3.283921,0 -0.740701,0.530522 -1.482216,1.060179 -2.224595,1.588997 -0.493521,0.565836 -0.987865,1.130797 -1.483064,1.694931 -0.458208,-0.740704 -0.917238,-1.482218 -1.377131,-2.224598 -0.987881,-0.528824 -1.976569,-1.058481 -2.966128,-1.588994 -1.482251,-0.0345 -2.965279,-0.06976 -4.449189,-0.105924 -1.305691,0.24801 -2.612166,0.4952 -3.919526,0.741531 -0.846634,0.459902 -1.694082,0.918933 -2.542394,1.377131 -2.082544,-0.316971 -4.165857,-0.634752 -6.250054,-0.953398 z" />
    <path
       style="fill:none;stroke:#000000;stroke-width:0.847464px;stroke-linecap:butt;stroke-linejoin:miter;stroke-opacity:1"
       d="m 130.03488,24.945035 c -3.07169,0.353068 -9.21582,1.05929 -12.87073,1.71251 -3.65491,0.65322 -4.82015,1.253495 -5.5266,2.189664 -0.70645,0.936168 -0.95362,2.207338 -0.65305,3.408072 0.30057,1.200733 1.14802,2.330666 2.50766,3.160148 1.35965,0.829481 3.23109,1.359133 5.01429,1.76515 1.7832,0.406018 3.47811,0.688502 4.87291,1.183101 1.39481,0.494599 2.48943,1.200807 3.00101,2.400019 0.51158,1.199212 0.44089,2.897042 -0.4417,4.16776 -0.88259,1.270717 -2.57748,2.118162 -4.78424,2.665535 -2.20675,0.547374 -4.92565,0.794546 -6.74448,1.253576 -1.81884,0.45903 -2.73691,1.129928 -3.2667,1.942497 -0.52979,0.812568 -0.67104,1.765947 -0.37047,2.719473 0.30057,0.953526 1.04209,1.906906 2.31337,2.400811 1.27128,0.493906 3.0721,0.529245 6.53244,-0.406595 3.46034,-0.93584 8.58034,-2.842593 11.66978,-4.519717 3.08944,-1.677123 4.14876,-3.124847 4.67848,-4.589925 0.52972,-1.465078 0.52972,-2.948107 -0.10553,-4.519415 -0.63526,-1.571309 -1.90644,-3.230897 -3.74249,-4.661222 -1.83604,-1.430324 -4.23715,-2.630878 -6.03803,-3.443112 -1.80088,-0.812235 -3.00142,-1.235955 -3.7255,-1.641723 -0.72407,-0.405768 -0.97124,-0.794181 -1.04226,-1.112277 -0.071,-0.318095 0.0349,-0.565254 0.4413,-0.830383 0.40639,-0.265129 1.1126,-0.547614 3.05484,-0.988981 1.94225,-0.441368 5.12019,-1.041647 7.13279,-1.536033 2.0126,-0.494387 2.86002,-0.882791 3.28357,-1.394299 0.42354,-0.511508 0.42354,-1.147089 0.22984,-1.553357 -0.19369,-0.406268 -0.58212,-0.582826 -1.00617,-0.56549 -0.42405,0.01733 -0.8831,0.229203 -1.11281,0.335223 -0.22971,0.106019 -0.22984,0.105923 -3.30152,0.45899 z"
       id="path1063"
       inkscape:path-effect="#path-effect1065"
       inkscape:original-d="m 133.10656,24.591968 c -6.14326,0.707066 -12.28739,1.413293 -18.43236,2.118664 -1.16444,0.601149 -2.32968,1.201426 -3.49579,1.800861 -0.24634,1.272073 -0.4935,2.543245 -0.74153,3.813593 0.84833,1.130826 1.69578,2.260757 2.54239,3.389862 1.87238,0.530519 3.74382,1.060176 5.61446,1.588994 1.69581,0.283339 3.39071,0.565829 5.08479,0.847467 1.09551,0.707082 2.19013,1.41329 3.28392,2.118662 8.6e-4,1.695811 -0.1403,3.390707 -0.21172,5.084789 -1.69413,0.848329 -3.38902,1.695776 -5.0848,2.542395 -2.71816,0.248041 -5.43706,0.495199 -8.15685,0.74153 -0.91726,0.671769 -1.83533,1.342666 -2.75426,2.012731 -0.14039,0.954262 -0.28164,1.90764 -0.42374,2.860185 0.7424,0.954275 1.48392,1.907653 2.2246,2.860198 1.80174,0.03619 3.60257,0.07143 5.40259,0.10602 5.12105,-1.905987 10.24105,-3.812743 15.36031,-5.720373 1.06019,-1.446938 2.1195,-2.894663 3.178,-4.343259 8.3e-4,-1.482251 8.3e-4,-2.96528 0,-4.449189 -1.27038,-1.658804 -2.54156,-3.318393 -3.81361,-4.978856 -2.40034,-1.199758 -4.80145,-2.400303 -7.20345,-3.601729 -1.19976,-0.422891 -2.4003,-0.846615 -3.60173,-1.271197 -0.24634,-0.387578 -0.4935,-0.775998 -0.74153,-1.165264 0.10679,-0.246344 0.21272,-0.493502 0.31781,-0.741531 0.70708,-0.281641 1.41329,-0.564132 2.11866,-0.847464 3.17889,-0.599455 6.35683,-1.199732 9.53397,-1.800865 0.84835,-0.387581 1.69577,-0.775998 2.54239,-1.165264 8.7e-4,-0.634767 8.7e-4,-1.270348 0,-1.906797 -0.38756,-0.175718 -0.77599,-0.352265 -1.16526,-0.529664 -0.45819,0.212712 -0.91724,0.424579 -1.37713,0.635597 z" />
    <path
       style="fill:none;stroke:#000000;stroke-width:0.847464px;stroke-linecap:butt;stroke-linejoin:miter;stroke-opacity:1"
       d="m 153.80481,10.905957 c 0,-1.1231666 0,-3.3703456 -0.3992,-5.1430572 -0.3992,-1.7727116 -1.1982,-3.071065 -2.14689,-3.7456934 -0.94869,-0.6746285 -2.04726,-0.7245616 -3.07147,-0.1752097 -1.0242,0.549352 -1.973,1.6978927 -2.44736,3.4211254 -0.47436,1.7232327 -0.47436,4.0203116 -0.39942,6.0927539 0.0749,2.072443 0.22475,3.920092 -0.42408,4.868434 -0.64882,0.948341 -2.097,0.998276 -3.27075,1.222928 -1.17375,0.224652 -2.07259,0.624134 -2.69709,1.298622 -0.6245,0.674488 -0.97405,1.62328 -1.07375,2.49743 -0.0997,0.87415 0.0501,1.673151 0.52491,2.14716 0.47481,0.474009 1.2738,0.623818 2.29733,0.52377 1.02353,-0.100049 2.27194,-0.449602 3.32034,-1.048776 1.0484,-0.599173 1.89733,-1.448094 2.34679,-0.44889 0.44946,0.999204 0.49943,3.845577 0.47447,6.442317 -0.0249,2.596739 -0.12478,4.943757 -0.47437,7.815119 -0.34958,2.871363 -0.94883,6.267038 -1.3733,8.738958 -0.42446,2.471919 -0.67414,4.019943 -0.69898,5.418329 -0.0248,1.398386 0.17491,2.646808 0.74964,3.495505 0.57472,0.848697 1.52351,1.298122 2.522,1.347736 0.99849,0.04961 2.04716,-0.29994 3.07058,-1.12377 1.02343,-0.82383 2.02218,-2.122197 2.64639,-3.570098 0.62421,-1.447901 0.87389,-3.045874 0.94889,-4.943421 0.075,-1.897548 -0.0248,-4.094748 -0.19957,-6.766414 -0.17474,-2.671666 -0.42442,-5.817657 -0.5493,-8.564268 -0.12488,-2.74661 -0.12488,-5.093611 0.0748,-6.616995 0.19967,-1.523383 0.59917,-2.222497 1.32377,-2.572194 0.72459,-0.349697 1.77329,-0.349697 2.82171,-0.624443 1.04842,-0.274745 2.09709,-0.824045 2.87089,-1.522968 0.7738,-0.698922 1.27315,-1.54783 1.62271,-2.346662 0.34956,-0.798832 0.54931,-1.547898 0.47488,-2.122022 -0.0744,-0.574124 -0.42399,-0.973616 -1.04819,-1.173815 -0.6242,-0.200199 -1.52306,-0.200199 -2.49717,0.149304 -0.97411,0.349503 -2.02278,1.04861 -2.97129,1.42318 -0.94851,0.37457 -1.79744,0.424505 -2.17241,-0.174344 -0.37497,-0.598849 -0.27515,-1.847264 -0.2252,-2.471869 0.0499,-0.624605 0.0497,-0.624595 0.0497,-1.747762 z"
       id="path1067"
       inkscape:path-effect="#path-effect1069"
       inkscape:original-d="m 153.80481,12.029124 c 8.3e-4,-2.2463336 8.3e-4,-4.4935126 0,-6.7415404 -0.79816,-1.2975454 -1.59716,-2.5958947 -2.39701,-3.8951089 -1.09781,-0.04907 -2.19638,-0.099037 -3.29584,-0.1498051 -0.948,1.1494315 -1.8968,2.2979693 -2.84643,3.4456711 8.3e-4,2.2980141 8.3e-4,4.595093 0,6.8913583 0.15054,1.848567 0.30044,3.696208 0.44942,5.543045 -1.44735,0.05077 -2.89553,0.100735 -4.34454,0.149805 -0.89807,0.400352 -1.7969,0.799848 -2.69662,1.198495 -0.34872,0.949679 -0.69829,1.898464 -1.04867,2.846432 0.15054,0.79986 0.30044,1.598843 0.44941,2.396987 0.79986,0.15067 1.59885,0.300475 2.39701,0.449435 1.24931,-0.348716 2.49772,-0.698268 3.74529,-1.048678 0.84979,-0.848111 1.69872,-1.697025 2.54682,-2.546811 0.0506,2.847338 0.10057,5.693711 0.1499,8.539294 -0.099,2.347944 -0.19891,4.694958 -0.29948,7.041164 -0.59842,3.396656 -1.19768,6.792328 -1.79776,10.187221 -0.24888,1.548928 -0.49852,3.096959 -0.74906,4.644167 0.20051,1.249311 0.40035,2.497719 0.59925,3.745294 0.94967,0.450312 1.89846,0.899727 2.84643,1.34831 1.04953,-0.348713 2.0982,-0.698258 3.14603,-1.048668 0.99963,-1.297542 1.99837,-2.595917 2.99627,-3.895122 0.25047,-1.597181 0.50021,-3.195144 0.74905,-4.793981 -0.099,-2.196443 -0.1989,-4.393639 -0.29948,-6.591735 -0.24887,-3.145263 -0.49852,-6.291257 -0.74906,-9.438157 8.7e-4,-2.346259 8.7e-4,-4.69326 0,-7.041171 0.40035,-0.698286 0.79986,-1.397393 1.19851,-2.097364 1.04953,8.46e-4 2.09823,8.46e-4 3.14603,0 1.04957,-0.548472 2.09824,-1.097773 3.14607,-1.64793 0.50025,-0.848111 0.9996,-1.697022 1.49812,-2.546811 0.2005,-0.748225 0.40034,-1.497267 0.59925,-2.247179 -0.34871,-0.398658 -0.69826,-0.798151 -1.04867,-1.198492 -0.89806,8.45e-4 -1.79692,8.45e-4 -2.69662,0 -1.04787,0.699977 -2.09653,1.399097 -3.14607,2.097364 -0.84809,0.05077 -1.69702,0.100735 -2.54678,0.149805 0.10058,-1.247614 0.20051,-2.496021 0.29948,-3.745304 z" />
    <path
       id="path1071"
       style="fill:none;stroke:#000000;stroke-width:0.847464px;stroke-linecap:butt;stroke-linejoin:miter;stroke-opacity:1"
       d="m 172.05022,25.083567 c -0.36222,-0.0019 -0.73211,0.01159 -1.10733,0.03807 -1.50085,0.10583 -3.08998,0.424257 -4.83816,1.342367 -1.74818,0.918118 -3.65398,2.435139 -5.01362,3.989052 -1.35963,1.553902 -2.1728,3.142951 -2.5788,4.891126 -0.40601,1.748178 -0.40568,3.656244 -0.14071,5.510175 0.26499,1.853939 0.79419,3.653682 1.85383,5.260238 1.05963,1.606566 2.6499,3.019859 4.18601,3.990706 1.53611,0.970848 3.01922,1.500383 4.92589,1.623751 1.90668,0.12338 4.23576,-0.159959 6.19543,-0.566073 1.95967,-0.406123 3.54902,-0.935281 4.34326,-1.200026 0.79424,-0.264762 0.79391,-0.26537 0.9352,-0.388971 0.14128,-0.123637 0.42379,-0.370663 0.58263,-0.776296 0.15884,-0.40563 0.19535,-0.970473 -0.0513,-1.464859 -0.24667,-0.494385 -0.77736,-0.918253 -1.50128,-1.130501 -0.72391,-0.212232 -1.64195,-0.212424 -2.91316,-0.230073 -1.2712,-0.01762 -2.89495,-0.05301 -4.06021,-0.105924 -1.16527,-0.05295 -1.87095,-0.122259 -2.57716,-0.42208 -0.7062,-0.299835 -1.41323,-0.829406 -1.94321,-1.62376 -0.52997,-0.794345 -0.88306,-1.854185 -1.02457,-2.560598 -0.14151,-0.706412 -0.0716,-1.058933 0.19365,-1.271197 0.26525,-0.212264 0.7255,-0.283051 1.74955,-0.388978 1.02405,-0.105923 2.61308,-0.248233 3.97249,-0.460139 1.35942,-0.211911 2.4891,-0.493828 3.53055,-0.988162 1.04146,-0.494335 1.99467,-1.201442 2.68309,-2.242798 0.68842,-1.041364 1.11214,-2.418454 1.2712,-3.477589 0.15906,-1.059135 0.0531,-1.799701 -0.40553,-2.558944 -0.45864,-0.759252 -1.2712,-1.537089 -2.17161,-2.313986 -0.9004,-0.776896 -1.88801,-1.552793 -3.08861,-1.994525 -0.90045,-0.331291 -1.92081,-0.474157 -3.00751,-0.480004 z m -0.87725,5.114578 c 0.30637,-0.0077 0.59174,0.02466 0.83753,0.09766 0.71501,0.212393 1.08664,0.776322 1.2894,1.332436 0.20275,0.556124 0.23837,1.103376 0.053,1.570795 -0.18539,0.467416 -0.59281,0.855811 -1.49299,1.252991 -0.90018,0.397175 -2.29433,0.80366 -3.22103,0.945121 -0.9267,0.141445 -1.38606,0.01858 -1.63369,-0.175461 -0.24762,-0.193879 -0.28186,-0.459675 -0.29961,-0.592565 -0.0176,-0.132893 -0.0183,-0.131676 0.0348,-0.466766 0.0529,-0.335106 0.15939,-1.00601 0.57436,-1.694931 0.41496,-0.688921 1.13897,-1.395301 2.03094,-1.819073 0.58535,-0.278086 1.24246,-0.435566 1.82734,-0.450216 z" />
    <path
       style="fill:none;stroke:#000000;stroke-width:0.847464px;stroke-linecap:butt;stroke-linejoin:miter;stroke-opacity:1"
       d="m 185.43755,26.357968 c 0.10596,1.765999 0.31783,5.297102 0.42374,8.792905 0.10591,3.495803 0.10591,6.956221 0.0353,9.710466 -0.0707,2.754244 -0.21189,4.802244 0.0356,6.320723 0.24752,1.51848 0.88313,2.507193 1.65997,2.895041 0.77684,0.387849 1.6949,0.175994 2.2595,-0.459222 0.5646,-0.635217 0.77646,-1.694527 0.81186,-3.67185 0.0354,-1.977324 -0.10584,-4.872765 1e-5,-7.309355 0.10586,-2.43659 0.45896,-4.413972 1.02392,-6.144406 0.56496,-1.730433 1.34178,-3.213465 2.43665,-4.378974 1.09487,-1.165509 2.50727,-2.012951 3.95539,-2.330608 1.44811,-0.317657 2.93117,-0.105791 4.061,0.530228 1.12983,0.636019 1.90667,1.695331 2.96595,2.047883 1.05928,0.352552 2.40108,-5.53e-4 3.0717,-0.635663 0.67062,-0.63511 0.67062,-1.553178 0.14138,-2.506598 -0.52923,-0.953419 -1.58856,-1.942122 -2.54189,-2.577955 -0.95332,-0.635833 -1.80078,-0.91832 -3.10739,-1.059734 -1.30661,-0.141414 -3.07215,-0.141414 -4.87316,0.10569 -1.80102,0.247105 -3.63715,0.741449 -5.01462,1.589065 -1.37747,0.847615 -2.29554,2.048174 -2.93079,2.366392 -0.63525,0.318217 -0.98834,-0.246729 -1.12995,-0.95307 -0.14161,-0.706341 -0.071,-1.553808 -0.21202,-2.330527 -0.14099,-0.776718 -0.49409,-1.482927 -1.05899,-1.765983 -0.5649,-0.283056 -1.34173,-0.141814 -1.73048,-0.07113 -0.38876,0.07068 -0.38863,0.07068 -0.28267,1.836683 z"
       id="path1193"
       inkscape:path-effect="#path-effect1195"
       inkscape:original-d="m 185.33159,24.591968 c 0.21268,3.531954 0.42459,7.063054 0.63561,10.593313 8.3e-4,3.461395 8.3e-4,6.921813 0,10.381446 -0.1403,2.048925 -0.28155,4.096924 -0.42373,6.14412 0.63644,0.989562 1.27205,1.97827 1.90679,2.966112 0.91894,-0.211079 1.83702,-0.422862 2.75424,-0.635575 0.21268,-1.058533 0.42459,-2.117834 0.63561,-3.178001 -0.1403,-2.89472 -0.28155,-5.790161 -0.42373,-8.686518 0.35396,-1.976607 0.70706,-3.95399 1.05933,-5.932253 0.77769,-1.482251 1.55452,-2.96528 2.33052,-4.449189 1.41333,-0.846634 2.82573,-1.694082 4.23733,-2.542396 1.48393,0.212712 2.96699,0.424579 4.44919,0.635598 0.77772,1.060196 1.55455,2.11951 2.33054,3.177995 1.34268,-0.352274 2.68448,-0.705371 4.02546,-1.059334 8.3e-4,-0.91726 8.3e-4,-1.835328 0,-2.754259 -1.0585,-0.987881 -2.11784,-1.976569 -3.178,-2.966128 -0.84662,-0.281641 -1.69408,-0.564131 -2.5424,-0.847464 -1.76473,8.46e-4 -3.53027,8.46e-4 -5.29667,0 -1.83536,0.495206 -3.67149,0.989559 -5.50851,1.483064 -0.91725,1.201442 -1.83533,2.401994 -2.75425,3.601726 -0.3523,-0.564141 -0.70536,-1.129106 -1.05933,-1.694931 0.0714,-0.846635 0.14221,-1.694082 0.21172,-2.542395 -0.35227,-0.705388 -0.70537,-1.411598 -1.05933,-2.118661 -0.776,0.142086 -1.55283,0.283339 -2.33052,0.42373 z" />
  </g>
</svg>
