<?xml version="1.0" encoding="UTF-8" standalone="no"?>
<!-- Created with Inkscape (http://www.inkscape.org/) -->

<svg
   width="126.75435mm"
   height="47.552063mm"
   viewBox="0 0 126.75435 47.552063"
   version="1.1"
   id="svg5"
   inkscape:version="1.1.2 (b8e25be833, 2022-02-05)"
   sodipodi:docname="PolandBox.svg"
   xmlns:inkscape="http://www.inkscape.org/namespaces/inkscape"
   xmlns:sodipodi="http://sodipodi.sourceforge.net/DTD/sodipodi-0.dtd"
   xmlns="http://www.w3.org/2000/svg"
   xmlns:svg="http://www.w3.org/2000/svg">
  <sodipodi:namedview
     id="namedview7"
     pagecolor="#ffffff"
     bordercolor="#666666"
     borderopacity="1.0"
     inkscape:pageshadow="2"
     inkscape:pageopacity="0.0"
     inkscape:pagecheckerboard="0"
     inkscape:document-units="mm"
     showgrid="false"
     inkscape:zoom="1.0469406"
     inkscape:cx="236.88067"
     inkscape:cy="75.457956"
     inkscape:window-width="1920"
     inkscape:window-height="1017"
     inkscape:window-x="-8"
     inkscape:window-y="-8"
     inkscape:window-maximized="1"
     inkscape:current-layer="layer1" />
  <defs
     id="defs2" />
  <g
     inkscape:label="Warstwa 1"
     inkscape:groupmode="layer"
     id="layer1"
     transform="translate(-8.8148943,-32.669451)">
    <path
       style="fill:#ffffff;fill-opacity:1;stroke:none;stroke-width:0.264583px;stroke-linecap:butt;stroke-linejoin:miter;stroke-opacity:1"
       d="M 89.336685,32.803121 H 108.6698 v 7.012993 H 89.020785 Z"
       id="path10985-7" />
    <path
       style="fill:#f02121;fill-opacity:1;stroke:none;stroke-width:0.264583px;stroke-linecap:butt;stroke-linejoin:miter;stroke-opacity:1"
       d="m 89.399866,39.361213 h 19.333114 v 7.012993 H 89.083966 Z"
       id="path10985" />
    <g
       aria-label="PolandBox"
       id="text2300"
       style="font-size:26.8887px;line-height:1.25;font-family:'Bauhaus 93';-inkscape-font-specification:'Bauhaus 93, ';stroke-width:2.01666">
      <path
         d="m 15.011899,66.239633 v -4.700271 q 1.614898,0 1.614898,-1.23415 0,-1.129115 -1.234149,-1.129115 -1.247279,0 -1.247279,1.549251 v 11.71129 H 8.8148943 V 61.276777 q 0,-1.733061 0.3413604,-2.835918 0.3544898,-1.115986 1.1947613,-2.074421 0.945306,-1.063469 2.363265,-1.680544 1.417959,-0.617074 2.927822,-0.617074 2.730884,0 4.582108,1.838094 1.864353,1.838095 1.864353,4.555849 0,2.638979 -1.667414,4.280135 -1.522993,1.509864 -4.595237,1.509864 z"
         id="path7188" />
      <path
         d="m 30.136794,59.071063 q 2.7834,0 4.765917,2.008775 1.995646,1.995646 1.995646,4.792176 0,2.835917 -2.021905,4.831563 -2.008775,1.995646 -4.857822,1.995646 -2.849046,0 -4.870951,-1.995646 -2.021904,-2.008775 -2.021904,-4.831563 0,-2.875306 2.021904,-4.831564 2.021905,-1.969387 4.989115,-1.969387 z m -0.131293,4.844693 q -0.787755,0 -1.339183,0.577687 -0.551429,0.564557 -0.551429,1.3917 0,0.814013 0.551429,1.3917 0.564558,0.577687 1.339183,0.577687 0.787755,0 1.339183,-0.577687 0.564558,-0.577687 0.564558,-1.3917 0,-0.827143 -0.551428,-1.3917 -0.551429,-0.577687 -1.352313,-0.577687 z"
         id="path7190" />
      <path
         d="M 43.856859,54.515214 V 72.436638 H 38.94652 V 54.515214 Z"
         id="path7192" />
      <path
         d="m 54.005769,67.526299 v 5.081019 q -0.603946,0.105034 -1.102857,0.105034 -2.954081,0 -4.923468,-1.943129 -1.969388,-1.943128 -1.969388,-4.870951 0,-2.849047 1.982517,-4.831563 1.995646,-1.982517 4.844692,-1.982517 3.177278,0 5.002244,1.864354 1.838095,1.851224 1.838095,5.067889 v 6.420203 h -4.910339 v -6.065713 q 0,-1.03721 -0.512041,-1.654285 -0.498911,-0.617075 -1.352312,-0.617075 -0.774626,0 -1.339184,0.564558 -0.564557,0.564558 -0.564557,1.339183 0,0.814014 0.51204,1.339184 0.512041,0.525169 1.299796,0.525169 0.643333,0 1.194762,-0.34136 z"
         id="path7194" />
      <path
         d="m 74.21168,72.436638 h -4.910339 v -7.391767 q 0,-1.129115 -0.932176,-1.129115 -0.919048,0 -0.919048,1.129115 v 7.391767 h -4.910339 v -7.299862 q 0,-2.560204 1.693673,-4.306394 1.693673,-1.759319 4.148843,-1.759319 2.809659,0 4.503332,2.035034 1.326054,1.588639 1.326054,4.424556 z"
         id="path7196" />
      <path
         d="m 85.135217,32.80312 h 4.910339 v 32.622499 c 0,2.004399 -0.52517,3.636802 -1.57551,4.89721 -0.603945,0.726485 -1.374194,1.304172 -2.310747,1.733061 -0.927801,0.428889 -1.881859,0.643333 -2.862176,0.643333 -1.951882,0 -3.597415,-0.656462 -4.936598,-1.969387 -1.339183,-1.312925 -2.008775,-2.923447 -2.008775,-4.831564 0,-1.846847 0.665215,-3.444239 1.995646,-4.792175 1.330431,-1.347937 2.90594,-2.021905 4.726529,-2.021905 0.288843,0 0.726485,0.02626 1.312925,0.07878 v 5.40925 c -0.40263,-0.315102 -0.80526,-0.472653 -1.207891,-0.472653 -0.507664,0 -0.945306,0.188186 -1.312925,0.564558 -0.358866,0.367619 -0.538299,0.814013 -0.538299,1.339183 0,0.507665 0.188186,0.945306 0.564558,1.312925 0.376372,0.358866 0.827143,0.538299 1.352313,0.538299 1.260407,0 1.890611,-0.870907 1.890611,-2.61272 z"
         id="path7198"
         sodipodi:nodetypes="ccsccsssssccscscssc" />
      <path
         d="m 92.999637,54.515214 h 6.512107 q 5.789996,0 5.789996,4.555849 0,2.258231 -1.98251,3.754965 2.8753,1.247279 2.8753,4.450815 0,2.45517 -1.69367,3.912516 -0.82714,0.69585 -1.77245,0.971565 -0.94531,0.275714 -2.54707,0.275714 h -1.010957 v -4.608366 h 0.905917 q 0.80089,0 1.12912,-0.196939 0.32823,-0.210068 0.32823,-0.722109 0,-0.86653 -1.33919,-0.86653 h -1.024077 v -4.779046 q 1.470477,0 1.470477,-1.010953 0,-0.932176 -1.326055,-0.932176 h -0.984694 v 13.116119 h -5.330474 z"
         id="path7200" />
      <path
         d="m 114.19024,59.071063 q 2.7834,0 4.76592,2.008775 1.99565,1.995646 1.99565,4.792176 0,2.835917 -2.02191,4.831563 -2.00877,1.995646 -4.85782,1.995646 -2.84905,0 -4.87095,-1.995646 -2.02191,-2.008775 -2.02191,-4.831563 0,-2.875306 2.02191,-4.831564 2.0219,-1.969387 4.98911,-1.969387 z m -0.13129,4.844693 q -0.78775,0 -1.33918,0.577687 -0.55143,0.564557 -0.55143,1.3917 0,0.814013 0.55143,1.3917 0.56456,0.577687 1.33918,0.577687 0.78776,0 1.33918,-0.577687 0.56456,-0.577687 0.56456,-1.3917 0,-0.827143 -0.55143,-1.3917 -0.55143,-0.577687 -1.35231,-0.577687 z"
         id="path7202" />
      <path
         d="m 130.13315,59.346777 h 4.91034 l -0.52917,2.875306 c -0.14892,0.809177 -0.12254,1.487981 -0.36762,1.995645 -0.23633,0.498912 -0.64771,0.94093 -1.23415,1.326055 0.59519,0.40263 1.01095,0.844648 1.24728,1.326054 0.23633,0.481405 0.35449,1.111609 0.35449,1.890611 l 0.52917,3.67619 h -4.91034 l -0.52917,-3.951904 c -0.11965,-0.893566 -0.3151,-1.352312 -0.94531,-1.352312 -0.61269,0 -0.82017,0.3958 -0.91904,1.168503 l -0.52917,4.135713 h -4.91034 l 0.52917,-3.49238 c 0.12064,-0.796173 0.14442,-1.461723 0.43326,-1.969387 0.2976,-0.507665 0.80964,-0.984694 1.53613,-1.431088 -0.72649,-0.472653 -1.23853,-0.971565 -1.53613,-1.496735 -0.28884,-0.52517 -0.43326,-1.194762 -0.43326,-2.008775 l -0.52917,-2.691496 h 4.91034 l 0.52917,3.308571 c 0.0539,0.337077 0.0875,0.621451 0.26258,0.840272 0.17506,0.218821 0.39826,0.328231 0.66959,0.328231 0.62145,0 0.93218,-0.389501 0.93218,-1.168503 z"
         id="path7204"
         sodipodi:nodetypes="ccsccssccsssccscccsccssssc" />
    </g>
    <path
       style="fill:none;stroke:#000000;stroke-width:0.264583px;stroke-linecap:butt;stroke-linejoin:miter;stroke-opacity:1"
       d="M 90.012049,32.937146 C 95.714955,32.93741 108.6698,32.803121 108.6698,32.803121 V 46.374206 H 89.715767"
       id="path10699"
       sodipodi:nodetypes="cccc" />
    <text
       xml:space="preserve"
       style="font-style:normal;font-variant:normal;font-weight:normal;font-stretch:normal;font-size:7.39935px;line-height:1.25;font-family:'Britannic Bold';-inkscape-font-specification:'Britannic Bold, ';stroke-width:0.554952"
       x="24.640404"
       y="78.906395"
       id="text12750"><tspan
         sodipodi:role="line"
         id="tspan12748"
         style="font-style:normal;font-variant:normal;font-weight:normal;font-stretch:normal;font-family:'Britannic Bold';-inkscape-font-specification:'Britannic Bold, ';stroke-width:0.554952"
         x="24.640404"
         y="78.906395">Polski, darmowy dysk internetowy</tspan></text>
  </g>
</svg>
