<?xml version="1.0" encoding="UTF-8" standalone="no"?>
<!-- Created with Inkscape (http://www.inkscape.org/) -->

<svg
   width="126.75435mm"
   height="47.552063mm"
   viewBox="0 0 126.75435 47.552063"
   version="1.1"
   id="svg5"
   inkscape:version="1.1.2 (b8e25be833, 2022-02-05)"
   sodipodi:docname="PolandBox.svg"
   xmlns:inkscape="http://www.inkscape.org/namespaces/inkscape"
   xmlns:sodipodi="http://sodipodi.sourceforge.net/DTD/sodipodi-0.dtd"
   xmlns="http://www.w3.org/2000/svg"
   xmlns:svg="http://www.w3.org/2000/svg">
  <sodipodi:namedview
     id="namedview7"
     pagecolor="#ffffff"
     bordercolor="#666666"
     borderopacity="1.0"
     inkscape:pageshadow="2"
     inkscape:pageopacity="0.0"
     inkscape:pagecheckerboard="0"
     inkscape:document-units="mm"
     showgrid="false"
     inkscape:zoom="1.4805976"
     inkscape:cx="321.4918"
     inkscape:cy="137.1068"
     inkscape:window-width="1920"
     inkscape:window-height="1017"
     inkscape:window-x="-8"
     inkscape:window-y="-8"
     inkscape:window-maximized="1"
     inkscape:current-layer="layer1" />
  <defs
     id="defs2" />
  <g
     inkscape:label="Warstwa 1"
     inkscape:groupmode="layer"
     id="layer1"
     transform="translate(-8.8148943,-32.669451)">
    <path
       style="fill:#ffffff;fill-opacity:1;stroke:none;stroke-width:0.264583px;stroke-linecap:butt;stroke-linejoin:miter;stroke-opacity:1"
       d="M 89.336685,32.803121 H 108.6698 v 7.012993 H 89.020785 Z"
       id="path10985-7" />
    <path
       style="fill:#f02121;fill-opacity:1;stroke:none;stroke-width:0.264583px;stroke-linecap:butt;stroke-linejoin:miter;stroke-opacity:1"
       d="m 89.399866,39.361213 h 19.333114 v 7.012993 H 89.083966 Z"
       id="path10985" />
    <path
       d="m 15.011899,66.239633 v -4.700271 q 1.614898,0 1.614898,-1.23415 0,-1.129115 -1.234149,-1.129115 -1.247279,0 -1.247279,1.549251 v 11.71129 H 8.8148943 V 61.276777 q 0,-1.733061 0.3413604,-2.835918 0.3544898,-1.115986 1.1947613,-2.074421 0.945306,-1.063469 2.363265,-1.680544 1.417959,-0.617074 2.927822,-0.617074 2.730884,0 4.582108,1.838094 1.864353,1.838095 1.864353,4.555849 0,2.638979 -1.667414,4.280135 -1.522993,1.509864 -4.595237,1.509864 z"
       id="path7188"
       style="font-size:26.8887px;line-height:1.25;font-family:'Bauhaus 93';-inkscape-font-specification:'Bauhaus 93, ';stroke-width:2.01666" />
    <path
       d="m 30.136794,59.071063 q 2.7834,0 4.765917,2.008775 1.995646,1.995646 1.995646,4.792176 0,2.835917 -2.021905,4.831563 -2.008775,1.995646 -4.857822,1.995646 -2.849046,0 -4.870951,-1.995646 -2.021904,-2.008775 -2.021904,-4.831563 0,-2.875306 2.021904,-4.831564 2.021905,-1.969387 4.989115,-1.969387 z m -0.131293,4.844693 q -0.787755,0 -1.339183,0.577687 -0.551429,0.564557 -0.551429,1.3917 0,0.814013 0.551429,1.3917 0.564558,0.577687 1.339183,0.577687 0.787755,0 1.339183,-0.577687 0.564558,-0.577687 0.564558,-1.3917 0,-0.827143 -0.551428,-1.3917 -0.551429,-0.577687 -1.352313,-0.577687 z"
       id="path7190"
       style="font-size:26.8887px;line-height:1.25;font-family:'Bauhaus 93';-inkscape-font-specification:'Bauhaus 93, ';stroke-width:2.01666" />
    <path
       d="M 43.856859,54.515214 V 72.436638 H 38.94652 V 54.515214 Z"
       id="path7192"
       style="font-size:26.8887px;line-height:1.25;font-family:'Bauhaus 93';-inkscape-font-specification:'Bauhaus 93, ';stroke-width:2.01666" />
    <path
       d="m 54.005769,67.526299 v 5.081019 q -0.603946,0.105034 -1.102857,0.105034 -2.954081,0 -4.923468,-1.943129 -1.969388,-1.943128 -1.969388,-4.870951 0,-2.849047 1.982517,-4.831563 1.995646,-1.982517 4.844692,-1.982517 3.177278,0 5.002244,1.864354 1.838095,1.851224 1.838095,5.067889 v 6.420203 h -4.910339 v -6.065713 q 0,-1.03721 -0.512041,-1.654285 -0.498911,-0.617075 -1.352312,-0.617075 -0.774626,0 -1.339184,0.564558 -0.564557,0.564558 -0.564557,1.339183 0,0.814014 0.51204,1.339184 0.512041,0.525169 1.299796,0.525169 0.643333,0 1.194762,-0.34136 z"
       id="path7194"
       style="font-size:26.8887px;line-height:1.25;font-family:'Bauhaus 93';-inkscape-font-specification:'Bauhaus 93, ';stroke-width:2.01666" />
    <path
       d="m 74.21168,72.436638 h -4.910339 v -7.391767 q 0,-1.129115 -0.932176,-1.129115 -0.919048,0 -0.919048,1.129115 v 7.391767 h -4.910339 v -7.299862 q 0,-2.560204 1.693673,-4.306394 1.693673,-1.759319 4.148843,-1.759319 2.809659,0 4.503332,2.035034 1.326054,1.588639 1.326054,4.424556 z"
       id="path7196"
       style="font-size:26.8887px;line-height:1.25;font-family:'Bauhaus 93';-inkscape-font-specification:'Bauhaus 93, ';stroke-width:2.01666" />
    <path
       d="m 85.135217,32.80312 h 4.910339 v 32.622499 c 0,2.004399 -0.52517,3.636802 -1.57551,4.89721 -0.603945,0.726485 -1.374194,1.304172 -2.310747,1.733061 -0.927801,0.428889 -1.881859,0.643333 -2.862176,0.643333 -1.951882,0 -3.597415,-0.656462 -4.936598,-1.969387 -1.339183,-1.312925 -2.008775,-2.923447 -2.008775,-4.831564 0,-1.846847 0.665215,-3.444239 1.995646,-4.792175 1.330431,-1.347937 2.90594,-2.021905 4.726529,-2.021905 0.288843,0 0.726485,0.02626 1.312925,0.07878 v 5.40925 c -0.40263,-0.315102 -0.80526,-0.472653 -1.207891,-0.472653 -0.507664,0 -0.945306,0.188186 -1.312925,0.564558 -0.358866,0.367619 -0.538299,0.814013 -0.538299,1.339183 0,0.507665 0.188186,0.945306 0.564558,1.312925 0.376372,0.358866 0.827143,0.538299 1.352313,0.538299 1.260407,0 1.890611,-0.870907 1.890611,-2.61272 z"
       id="path7198"
       sodipodi:nodetypes="ccsccsssssccscscssc"
       style="font-size:26.8887px;line-height:1.25;font-family:'Bauhaus 93';-inkscape-font-specification:'Bauhaus 93, ';stroke-width:2.01666" />
    <path
       d="m 92.999637,54.515214 h 6.512107 q 5.789996,0 5.789996,4.555849 0,2.258231 -1.98251,3.754965 2.8753,1.247279 2.8753,4.450815 0,2.45517 -1.69367,3.912516 -0.82714,0.69585 -1.77245,0.971565 -0.94531,0.275714 -2.54707,0.275714 h -1.010957 v -4.608366 h 0.905917 q 0.80089,0 1.12912,-0.196939 0.32823,-0.210068 0.32823,-0.722109 0,-0.86653 -1.33919,-0.86653 h -1.024077 v -4.779046 q 1.470477,0 1.470477,-1.010953 0,-0.932176 -1.326055,-0.932176 h -0.984694 v 13.116119 h -5.330474 z"
       id="path7200"
       style="font-size:26.8887px;line-height:1.25;font-family:'Bauhaus 93';-inkscape-font-specification:'Bauhaus 93, ';stroke-width:2.01666" />
    <path
       d="m 114.19024,59.071063 q 2.7834,0 4.76592,2.008775 1.99565,1.995646 1.99565,4.792176 0,2.835917 -2.02191,4.831563 -2.00877,1.995646 -4.85782,1.995646 -2.84905,0 -4.87095,-1.995646 -2.02191,-2.008775 -2.02191,-4.831563 0,-2.875306 2.02191,-4.831564 2.0219,-1.969387 4.98911,-1.969387 z m -0.13129,4.844693 q -0.78775,0 -1.33918,0.577687 -0.55143,0.564557 -0.55143,1.3917 0,0.814013 0.55143,1.3917 0.56456,0.577687 1.33918,0.577687 0.78776,0 1.33918,-0.577687 0.56456,-0.577687 0.56456,-1.3917 0,-0.827143 -0.55143,-1.3917 -0.55143,-0.577687 -1.35231,-0.577687 z"
       id="path7202"
       style="font-size:26.8887px;line-height:1.25;font-family:'Bauhaus 93';-inkscape-font-specification:'Bauhaus 93, ';stroke-width:2.01666" />
    <path
       d="m 130.13315,59.346777 h 4.91034 l -0.52917,2.875306 c -0.14892,0.809177 -0.12254,1.487981 -0.36762,1.995645 -0.23633,0.498912 -0.64771,0.94093 -1.23415,1.326055 0.59519,0.40263 1.01095,0.844648 1.24728,1.326054 0.23633,0.481405 0.35449,1.111609 0.35449,1.890611 l 0.52917,3.67619 h -4.91034 l -0.52917,-3.951904 c -0.11965,-0.893566 -0.3151,-1.352312 -0.94531,-1.352312 -0.61269,0 -0.82017,0.3958 -0.91904,1.168503 l -0.52917,4.135713 h -4.91034 l 0.52917,-3.49238 c 0.12064,-0.796173 0.14442,-1.461723 0.43326,-1.969387 0.2976,-0.507665 0.80964,-0.984694 1.53613,-1.431088 -0.72649,-0.472653 -1.23853,-0.971565 -1.53613,-1.496735 -0.28884,-0.52517 -0.43326,-1.194762 -0.43326,-2.008775 l -0.52917,-2.691496 h 4.91034 l 0.52917,3.308571 c 0.0539,0.337077 0.0875,0.621451 0.26258,0.840272 0.17506,0.218821 0.39826,0.328231 0.66959,0.328231 0.62145,0 0.93218,-0.389501 0.93218,-1.168503 z"
       id="path7204"
       sodipodi:nodetypes="ccsccssccsssccscccsccssssc"
       style="font-size:26.8887px;line-height:1.25;font-family:'Bauhaus 93';-inkscape-font-specification:'Bauhaus 93, ';stroke-width:2.01666" />
    <path
       style="fill:none;stroke:#000000;stroke-width:0.264583px;stroke-linecap:butt;stroke-linejoin:miter;stroke-opacity:1"
       d="M 90.012049,32.937146 C 95.714955,32.93741 108.6698,32.803121 108.6698,32.803121 V 46.374206 H 89.715767"
       id="path10699"
       sodipodi:nodetypes="cccc" />
    <path
       d="m 25.066733,78.906395 v -4.931696 h 2.128036 q 1.810095,0 1.810095,1.448799 0,1.46325 -2.012421,1.46325 h -0.494976 v 2.019647 z m 1.430734,-2.47488 h 0.321554 q 0.7804,0 0.7804,-1.033308 0,-0.968274 -0.7804,-0.968274 h -0.321554 z"
       id="path16260"
       style="font-size:7.39935px;line-height:1.25;font-family:'Britannic Bold';-inkscape-font-specification:'Britannic Bold, ';stroke-width:0.554952" />
    <path
       d="m 31.064254,75.17059 q 1.806482,0 1.806482,1.907645 0,1.907645 -1.806482,1.907645 -1.810095,0 -1.810095,-1.907645 0,-1.907645 1.810095,-1.907645 z m -0.0036,0.321554 q -0.437169,0 -0.437169,1.586091 0,1.586091 0.437169,1.586091 0.440781,0 0.440781,-1.586091 0,-1.586091 -0.440781,-1.586091 z"
       id="path16262"
       style="font-size:7.39935px;line-height:1.25;font-family:'Britannic Bold';-inkscape-font-specification:'Britannic Bold, ';stroke-width:0.554952" />
    <path
       d="m 34.735026,73.90244 v 5.003955 h -1.318732 v -4.931696 q 0.545557,0 1.318732,-0.07226 z"
       id="path16264"
       style="font-size:7.39935px;line-height:1.25;font-family:'Britannic Bold';-inkscape-font-specification:'Britannic Bold, ';stroke-width:0.554952" />
    <path
       d="m 38.301021,76.200285 -0.615802,0.104104 c 0,-0.544353 -0.2766,-0.808632 -0.782415,-0.808632 -0.310715,0 -0.466073,0.127658 -0.466073,0.382974 0,0.187874 0.267359,0.3902 0.802078,0.606978 0.818939,0.334801 1.228408,0.759927 1.228408,1.275376 0,0.821347 -0.521471,1.232021 -1.564413,1.232021 -1.103159,0 -1.654738,-0.410674 -1.654738,-1.232021 l 0.679237,-0.137292 c -0.0096,0.07948 -0.01445,0.154153 -0.01445,0.224004 0,0.21196 0.08792,0.396221 0.263747,0.552783 0.178239,0.156562 0.387791,0.234843 0.628655,0.234843 0.317941,0 0.476912,-0.134884 0.476912,-0.404652 0,-0.180649 -0.256521,-0.380566 -0.769562,-0.599752 -0.773174,-0.332393 -1.159761,-0.758723 -1.159761,-1.27899 0,-0.344435 0.148132,-0.626246 0.444395,-0.845433 0.296263,-0.221595 0.676828,-0.332393 1.141696,-0.332393 0.826165,0 1.280194,0.342027 1.362088,1.026082 z"
       id="path16266"
       sodipodi:nodetypes="ccsscssccscsscscssc"
       style="font-size:7.39935px;line-height:1.25;font-family:'Britannic Bold';-inkscape-font-specification:'Britannic Bold, ';stroke-width:0.554952" />
    <path
       d="m 41.848574,75.42089 -0.371759,0.786621 1.08389,2.698884 h -1.390992 l -0.632268,-1.604156 -0.242069,0.296263 v 1.307893 h -1.318732 v -4.931696 c 0.387792,0 0.827369,-0.0265 1.318732,-0.07949 v 3.085471 l 1.025705,-1.559795 z"
       id="path16268"
       style="font-size:7.39935px;line-height:1.25;font-family:'Britannic Bold';-inkscape-font-specification:'Britannic Bold, ';stroke-width:0.554952"
       sodipodi:nodetypes="ccccccccccccc" />
    <path
       d="m 43.565109,73.851858 q 0.614204,0 0.614204,0.476912 0,0.476911 -0.614204,0.476911 -0.614204,0 -0.614204,-0.476911 0,-0.476912 0.614204,-0.476912 z M 42.89671,78.906395 V 75.26814 q 0.617817,0 1.318732,-0.09755 v 3.735805 z"
       id="path16270"
       style="font-size:7.39935px;line-height:1.25;font-family:'Britannic Bold';-inkscape-font-specification:'Britannic Bold, ';stroke-width:0.554952" />
    <path
       d="m 45.187329,79.918025 v -0.458847 q 0.317941,-0.191487 0.411878,-0.54917 -0.578074,0 -0.578074,-0.617817 0,-0.635882 0.639494,-0.635882 0.628656,0 0.628656,0.75511 0,1.174213 -1.101954,1.506606 z"
       id="path16272"
       style="font-size:7.39935px;line-height:1.25;font-family:'Britannic Bold';-inkscape-font-specification:'Britannic Bold, ';stroke-width:0.554952" />
    <path
       d="m 52.554163,73.898827 v 5.007568 h -1.318732 v -0.314328 q -0.332393,0.397426 -0.888789,0.397426 -1.228408,0 -1.228408,-1.885967 0,-1.940162 1.300667,-1.940162 0.513041,0 0.81653,0.451621 v -1.640286 q 0.596139,0 1.318732,-0.07587 z m -1.708932,1.795643 q -0.332393,0 -0.332393,0.610591 l -0.02529,0.773174 0.01445,0.704528 q 0,0.675624 0.375748,0.675624 0.36491,0 0.36491,-0.664785 l 0.01807,-0.888789 -0.0289,-0.606978 Q 51.17401,75.69447 50.845231,75.69447 Z"
       id="path16274"
       style="font-size:7.39935px;line-height:1.25;font-family:'Britannic Bold';-inkscape-font-specification:'Britannic Bold, ';stroke-width:0.554952" />
    <path
       d="m 56.947527,78.776328 q -0.484137,0.187874 -0.942983,0.187874 -0.679237,0 -0.838208,-0.422716 -0.32878,0.440781 -0.946596,0.440781 -1.152536,0 -1.152536,-1.069437 0,-0.812917 1.054986,-1.141697 0.968274,-0.303489 0.968274,-0.729818 0,-0.56001 -0.556397,-0.56001 -0.643107,0 -0.643107,0.541945 0,0.169809 0.101163,0.448007 l -0.653947,-0.126453 q -0.02529,-0.16981 -0.02529,-0.317941 0,-0.867112 1.582478,-0.867112 1.502993,0 1.502993,0.809304 v 2.211134 q 0,0.339619 0.220391,0.339619 0.06865,0 0.202326,-0.07587 z m -1.867902,-2.059389 q -0.122841,0.140905 -0.285424,0.234842 -0.408265,0.238456 -0.408265,0.802078 0,0.722593 0.281811,0.722593 0.411878,0 0.411878,-0.715367 z"
       id="path16276"
       style="font-size:7.39935px;line-height:1.25;font-family:'Britannic Bold';-inkscape-font-specification:'Britannic Bold, ';stroke-width:0.554952" />
    <path
       d="m 59.808996,76.586872 h -0.903241 q 0.04697,-0.213165 0.0831,-0.314328 0.05058,-0.148131 0.05058,-0.267359 0,-0.23123 -0.166196,-0.23123 -0.126454,0 -0.242069,0.307102 -0.115615,0.303489 -0.115615,0.643108 v 2.18223 h -1.318732 v -3.641868 l 0.256521,0.0036 q 0.455233,0 1.062211,-0.09755 v 0.599752 q 0.321554,-0.599752 0.787626,-0.599752 0.635882,0 0.635882,0.700915 0,0.184261 -0.06142,0.422717 -0.02168,0.09755 -0.06865,0.29265 z"
       id="path16278"
       style="font-size:7.39935px;line-height:1.25;font-family:'Britannic Bold';-inkscape-font-specification:'Britannic Bold, ';stroke-width:0.554952" />
    <path
       d="m 65.6909,78.906395 h -1.318732 v -2.735014 c 0,-0.238455 -0.06985,-0.357683 -0.209552,-0.357683 -0.322758,0 -0.484137,0.343232 -0.484137,1.029695 v 2.063002 h -1.318732 v -2.677206 c 0,-0.272177 -0.06262,-0.408265 -0.187874,-0.408265 -0.327575,0 -0.491363,0.342027 -0.491363,1.026082 v 2.059389 h -1.318732 c 0.06758,-1.006512 0.132452,-2.641632 0.490848,-3.170738 0.360231,-0.590705 1.32947,-0.557299 1.976807,-0.568676 0.380565,0 0.663581,0.196304 0.849046,0.588913 0.293855,-0.397426 0.661173,-0.596139 1.101954,-0.596139 0.606978,0 0.910467,0.307102 0.910467,0.921306 z"
       id="path16280"
       style="font-size:7.39935px;line-height:1.25;font-family:'Britannic Bold';-inkscape-font-specification:'Britannic Bold, ';stroke-width:0.554952"
       sodipodi:nodetypes="ccsssccssscccccssc" />
    <path
       d="m 68.071845,75.17059 q 1.806482,0 1.806482,1.907645 0,1.907645 -1.806482,1.907645 -1.810095,0 -1.810095,-1.907645 0,-1.907645 1.810095,-1.907645 z m -0.0036,0.321554 q -0.437168,0 -0.437168,1.586091 0,1.586091 0.437168,1.586091 0.440782,0 0.440782,-1.586091 0,-1.586091 -0.440782,-1.586091 z"
       id="path16282"
       style="font-size:7.39935px;line-height:1.25;font-family:'Britannic Bold';-inkscape-font-specification:'Britannic Bold, ';stroke-width:0.554952" />
    <path
       d="m 75.037638,75.264527 -1.195891,3.641868 H 73.00354 L 72.508563,77.06017 72.0172,78.906395 h -0.834594 l -1.195891,-3.641868 h 1.376539 l 0.643107,2.138875 0.520267,-2.138875 h 0.85266 l 0.556396,2.138875 0.672011,-2.138875 z"
       id="path16284"
       style="font-size:7.39935px;line-height:1.25;font-family:'Britannic Bold';-inkscape-font-specification:'Britannic Bold, ';stroke-width:0.554952" />
    <path
       d="m 78.37963,75.264527 -1.669189,4.111553 q -0.343232,0.845434 -0.924919,0.845434 -0.563622,0 -0.765948,-0.480524 l 0.455233,-0.32878 q 0.0542,0.415491 0.307102,0.415491 0.285424,0 0.462459,-0.480524 l 0.09755,-0.260134 -1.466863,-3.822516 h 1.448799 l 0.733431,2.142488 0.834595,-2.142488 z"
       id="path16286"
       style="font-size:7.39935px;line-height:1.25;font-family:'Britannic Bold';-inkscape-font-specification:'Britannic Bold, ';stroke-width:0.554952" />
    <path
       d="m 84.142309,73.898827 v 5.007568 h -1.318732 v -0.314328 q -0.332393,0.397426 -0.888789,0.397426 -1.228408,0 -1.228408,-1.885967 0,-1.940162 1.300667,-1.940162 0.513041,0 0.81653,0.451621 v -1.640286 q 0.596139,0 1.318732,-0.07587 z m -1.708932,1.795643 q -0.332393,0 -0.332393,0.610591 l -0.02529,0.773174 0.01445,0.704528 q 0,0.675624 0.375749,0.675624 0.364909,0 0.364909,-0.664785 l 0.01806,-0.888789 -0.0289,-0.606978 Q 82.762157,75.69447 82.433377,75.69447 Z"
       id="path16288"
       style="font-size:7.39935px;line-height:1.25;font-family:'Britannic Bold';-inkscape-font-specification:'Britannic Bold, ';stroke-width:0.554952" />
    <path
       d="m 87.92147,75.264527 -1.66919,4.111553 q -0.343231,0.845434 -0.924918,0.845434 -0.563623,0 -0.765949,-0.480524 l 0.455234,-0.32878 q 0.05419,0.415491 0.307102,0.415491 0.285424,0 0.462459,-0.480524 l 0.09755,-0.260134 -1.466863,-3.822516 h 1.448798 l 0.733432,2.142488 0.834595,-2.142488 z"
       id="path16290"
       style="font-size:7.39935px;line-height:1.25;font-family:'Britannic Bold';-inkscape-font-specification:'Britannic Bold, ';stroke-width:0.554952" />
    <path
       d="m 91.043071,76.200285 -0.639495,0.112002 q 0,-0.81653 -0.758722,-0.81653 -0.466073,0 -0.466073,0.382974 0,0.281811 0.802078,0.606978 1.228408,0.502202 1.228408,1.275376 0,1.232021 -1.564413,1.232021 -1.654738,0 -1.654738,-1.232021 l 0.679237,-0.137292 q -0.01445,0.119228 -0.01445,0.224004 0,0.31794 0.263746,0.552783 0.267359,0.234843 0.628656,0.234843 0.476911,0 0.476911,-0.404652 0,-0.270973 -0.769561,-0.599752 -1.159762,-0.498589 -1.159762,-1.27899 0,-0.516653 0.444395,-0.845433 0.444394,-0.332393 1.141696,-0.332393 1.239247,0 1.362088,1.026082 z"
       id="path16292"
       style="font-size:7.39935px;line-height:1.25;font-family:'Britannic Bold';-inkscape-font-specification:'Britannic Bold, ';stroke-width:0.554952" />
    <path
       d="m 94.970362,75.264527 -0.751496,0.942984 1.083889,2.698884 h -1.390991 l -0.632269,-1.604156 -0.242069,0.296263 v 1.307893 h -1.318732 v -4.931696 q 0.581688,0 1.318732,-0.07949 v 3.085471 l 1.405443,-1.716158 z"
       id="path16294"
       style="font-size:7.39935px;line-height:1.25;font-family:'Britannic Bold';-inkscape-font-specification:'Britannic Bold, ';stroke-width:0.554952" />
    <path
       d="m 98.52552,73.851858 q 0.614204,0 0.614204,0.476912 0,0.476911 -0.614204,0.476911 -0.614204,0 -0.614204,-0.476911 0,-0.476912 0.614204,-0.476912 z m -0.668398,5.054537 V 75.26814 q 0.617816,0 1.318731,-0.09755 v 3.735805 z"
       id="path16296"
       style="font-size:7.39935px;line-height:1.25;font-family:'Britannic Bold';-inkscape-font-specification:'Britannic Bold, ';stroke-width:0.554952" />
    <path
       d="m 103.36328,78.906395 h -1.31873 v -2.673593 q 0,-0.408265 -0.22762,-0.408265 -0.23123,0 -0.40104,0.325166 -0.16981,0.321554 -0.16981,0.762336 v 1.994356 h -1.318731 v -3.649094 q 0.679241,0 1.318731,-0.09032 v 0.68285 q 0.49136,-0.679237 1.19951,-0.679237 0.91769,0 0.91769,0.932145 z"
       id="path16298"
       style="font-size:7.39935px;line-height:1.25;font-family:'Britannic Bold';-inkscape-font-specification:'Britannic Bold, ';stroke-width:0.554952" />
    <path
       d="m 106.073,75.275366 v 0.408265 h -0.5853 v 2.576043 q 0,0.242069 0.15535,0.242069 0.11201,0 0.13368,-0.162583 l 0.37575,0.03613 q -0.15536,0.570849 -0.98995,0.570849 -0.99357,0 -0.99357,-0.845434 v -2.417073 h -0.44078 v -0.408265 h 0.44078 V 74.63226 q 0.68285,-0.187875 1.31874,-0.541945 v 1.185052 z"
       id="path16300"
       style="font-size:7.39935px;line-height:1.25;font-family:'Britannic Bold';-inkscape-font-specification:'Britannic Bold, ';stroke-width:0.554952" />
    <path
       d="m 109.10067,77.573211 0.5311,0.155358 q -0.0831,1.260924 -1.48854,1.260924 -1.82093,0 -1.82093,-1.817321 0,-0.881563 0.48413,-1.445185 0.48414,-0.563623 1.23925,-0.563623 1.57887,0 1.57887,2.037712 h -1.9221 q 0,1.430734 0.72621,1.430734 0.67923,0 0.67923,-0.809304 0,-0.108389 -0.007,-0.249295 z m -1.40183,-0.7804 h 0.78762 q 0,-1.271763 -0.38297,-1.271763 -0.34685,0 -0.3902,0.942983 z"
       id="path16302"
       style="font-size:7.39935px;line-height:1.25;font-family:'Britannic Bold';-inkscape-font-specification:'Britannic Bold, ';stroke-width:0.554952" />
    <path
       d="m 112.80757,76.586872 h -0.90325 q 0.047,-0.213165 0.0831,-0.314328 0.0506,-0.148131 0.0506,-0.267359 0,-0.23123 -0.16619,-0.23123 -0.12646,0 -0.24207,0.307102 -0.11562,0.303489 -0.11562,0.643108 v 2.18223 h -1.31873 v -3.641868 l 0.25652,0.0036 q 0.45524,0 1.06221,-0.09755 v 0.599752 q 0.32156,-0.599752 0.78763,-0.599752 0.63588,0 0.63588,0.700915 0,0.184261 -0.0614,0.422717 -0.0217,0.09755 -0.0686,0.29265 z"
       id="path16304"
       style="font-size:7.39935px;line-height:1.25;font-family:'Britannic Bold';-inkscape-font-specification:'Britannic Bold, ';stroke-width:0.554952" />
    <path
       d="m 116.79628,78.906395 h -1.31874 v -2.673593 q 0,-0.408265 -0.22761,-0.408265 -0.23123,0 -0.40104,0.325166 -0.16981,0.321554 -0.16981,0.762336 v 1.994356 h -1.31873 v -3.649094 q 0.67924,0 1.31873,-0.09032 v 0.68285 q 0.49136,-0.679237 1.1995,-0.679237 0.9177,0 0.9177,0.932145 z"
       id="path16306"
       style="font-size:7.39935px;line-height:1.25;font-family:'Britannic Bold';-inkscape-font-specification:'Britannic Bold, ';stroke-width:0.554952" />
    <path
       d="m 120.1455,77.573211 0.5311,0.155358 q -0.0831,1.260924 -1.48854,1.260924 -1.82093,0 -1.82093,-1.817321 0,-0.881563 0.48413,-1.445185 0.48414,-0.563623 1.23925,-0.563623 1.57887,0 1.57887,2.037712 h -1.9221 q 0,1.430734 0.72621,1.430734 0.67923,0 0.67923,-0.809304 0,-0.108389 -0.007,-0.249295 z m -1.40183,-0.7804 h 0.78762 q 0,-1.271763 -0.38297,-1.271763 -0.34685,0 -0.3902,0.942983 z"
       id="path16308"
       style="font-size:7.39935px;line-height:1.25;font-family:'Britannic Bold';-inkscape-font-specification:'Britannic Bold, ';stroke-width:0.554952" />
    <path
       d="m 123.20206,75.275366 v 0.408265 h -0.5853 v 2.576043 q 0,0.242069 0.15536,0.242069 0.112,0 0.13368,-0.162583 l 0.37575,0.03613 q -0.15536,0.570849 -0.98995,0.570849 -0.99357,0 -0.99357,-0.845434 v -2.417073 h -0.44078 v -0.408265 h 0.44078 V 74.63226 q 0.68285,-0.187875 1.31873,-0.541945 v 1.185052 z"
       id="path16310"
       style="font-size:7.39935px;line-height:1.25;font-family:'Britannic Bold';-inkscape-font-specification:'Britannic Bold, ';stroke-width:0.554952" />
    <path
       d="m 125.26145,75.17059 q 1.80648,0 1.80648,1.907645 0,1.907645 -1.80648,1.907645 -1.81009,0 -1.81009,-1.907645 0,-1.907645 1.81009,-1.907645 z m -0.004,0.321554 q -0.43717,0 -0.43717,1.586091 0,1.586091 0.43717,1.586091 0.44078,0 0.44078,-1.586091 0,-1.586091 -0.44078,-1.586091 z"
       id="path16312"
       style="font-size:7.39935px;line-height:1.25;font-family:'Britannic Bold';-inkscape-font-specification:'Britannic Bold, ';stroke-width:0.554952" />
    <path
       d="m 132.22725,75.264527 -1.19589,3.641868 h -0.83821 l -0.49498,-1.846225 -0.49136,1.846225 h -0.83459 l -1.1959,-3.641868 h 1.37654 l 0.64311,2.138875 0.52027,-2.138875 h 0.85266 l 0.55639,2.138875 0.67202,-2.138875 z"
       id="path16314"
       style="font-size:7.39935px;line-height:1.25;font-family:'Britannic Bold';-inkscape-font-specification:'Britannic Bold, ';stroke-width:0.554952" />
    <path
       d="m 135.56924,75.264527 -1.66919,4.111553 q -0.34323,0.845434 -0.92492,0.845434 -0.56362,0 -0.76595,-0.480524 l 0.45524,-0.32878 q 0.0542,0.415491 0.3071,0.415491 0.28542,0 0.46246,-0.480524 l 0.0976,-0.260134 -1.46687,-3.822516 h 1.4488 l 0.73343,2.142488 0.8346,-2.142488 z"
       id="path16316"
       style="font-size:7.39935px;line-height:1.25;font-family:'Britannic Bold';-inkscape-font-specification:'Britannic Bold, ';stroke-width:0.554952" />
  </g>
</svg>
